G04 #@! TF.GenerationSoftware,KiCad,Pcbnew,(5.1.9)-1*
G04 #@! TF.CreationDate,2025-04-21T17:56:46+09:00*
G04 #@! TF.ProjectId,PYUTA_GBASIC,50595554-415f-4474-9241-5349432e6b69,rev?*
G04 #@! TF.SameCoordinates,PX53920b0PY93c3260*
G04 #@! TF.FileFunction,Legend,Top*
G04 #@! TF.FilePolarity,Positive*
%FSLAX46Y46*%
G04 Gerber Fmt 4.6, Leading zero omitted, Abs format (unit mm)*
G04 Created by KiCad (PCBNEW (5.1.9)-1) date 2025-04-21 17:56:46*
%MOMM*%
%LPD*%
G01*
G04 APERTURE LIST*
%ADD10C,0.150000*%
%ADD11C,0.500000*%
%ADD12C,0.120000*%
G04 APERTURE END LIST*
D10*
X98409047Y25487381D02*
X98218571Y25487381D01*
X98123333Y25535000D01*
X98028095Y25630239D01*
X97980476Y25820715D01*
X97980476Y26154048D01*
X98028095Y26344524D01*
X98123333Y26439762D01*
X98218571Y26487381D01*
X98409047Y26487381D01*
X98504285Y26439762D01*
X98599523Y26344524D01*
X98647142Y26154048D01*
X98647142Y25820715D01*
X98599523Y25630239D01*
X98504285Y25535000D01*
X98409047Y25487381D01*
X97551904Y26487381D02*
X97551904Y25487381D01*
X96980476Y26487381D01*
X96980476Y25487381D01*
X98742380Y38187381D02*
X98551904Y38187381D01*
X98456666Y38235000D01*
X98361428Y38330239D01*
X98313809Y38520715D01*
X98313809Y38854048D01*
X98361428Y39044524D01*
X98456666Y39139762D01*
X98551904Y39187381D01*
X98742380Y39187381D01*
X98837619Y39139762D01*
X98932857Y39044524D01*
X98980476Y38854048D01*
X98980476Y38520715D01*
X98932857Y38330239D01*
X98837619Y38235000D01*
X98742380Y38187381D01*
X97551904Y38663572D02*
X97885238Y38663572D01*
X97885238Y39187381D02*
X97885238Y38187381D01*
X97409047Y38187381D01*
X96694761Y38663572D02*
X97028095Y38663572D01*
X97028095Y39187381D02*
X97028095Y38187381D01*
X96551904Y38187381D01*
X82859619Y25360239D02*
X82859619Y25931667D01*
X82859619Y25645953D02*
X83859619Y25645953D01*
X83716761Y25741191D01*
X83621523Y25836429D01*
X83573904Y25931667D01*
X83859619Y24741191D02*
X83859619Y24645953D01*
X83812000Y24550715D01*
X83764380Y24503096D01*
X83669142Y24455477D01*
X83478666Y24407858D01*
X83240571Y24407858D01*
X83050095Y24455477D01*
X82954857Y24503096D01*
X82907238Y24550715D01*
X82859619Y24645953D01*
X82859619Y24741191D01*
X82907238Y24836429D01*
X82954857Y24884048D01*
X83050095Y24931667D01*
X83240571Y24979286D01*
X83478666Y24979286D01*
X83669142Y24931667D01*
X83764380Y24884048D01*
X83812000Y24836429D01*
X83859619Y24741191D01*
X82859619Y23979286D02*
X83859619Y23979286D01*
X83240571Y23884048D02*
X82859619Y23598334D01*
X83526285Y23598334D02*
X83145333Y23979286D01*
X77779619Y25360239D02*
X77779619Y25931667D01*
X77779619Y25645953D02*
X78779619Y25645953D01*
X78636761Y25741191D01*
X78541523Y25836429D01*
X78493904Y25931667D01*
X78779619Y24741191D02*
X78779619Y24645953D01*
X78732000Y24550715D01*
X78684380Y24503096D01*
X78589142Y24455477D01*
X78398666Y24407858D01*
X78160571Y24407858D01*
X77970095Y24455477D01*
X77874857Y24503096D01*
X77827238Y24550715D01*
X77779619Y24645953D01*
X77779619Y24741191D01*
X77827238Y24836429D01*
X77874857Y24884048D01*
X77970095Y24931667D01*
X78160571Y24979286D01*
X78398666Y24979286D01*
X78589142Y24931667D01*
X78684380Y24884048D01*
X78732000Y24836429D01*
X78779619Y24741191D01*
X77779619Y23979286D02*
X78779619Y23979286D01*
X78160571Y23884048D02*
X77779619Y23598334D01*
X78446285Y23598334D02*
X78065333Y23979286D01*
X85383523Y12660381D02*
X84764476Y12660381D01*
X85097809Y13041334D01*
X84954952Y13041334D01*
X84859714Y13088953D01*
X84812095Y13136572D01*
X84764476Y13231810D01*
X84764476Y13469905D01*
X84812095Y13565143D01*
X84859714Y13612762D01*
X84954952Y13660381D01*
X85240666Y13660381D01*
X85335904Y13612762D01*
X85383523Y13565143D01*
X84383523Y12755620D02*
X84335904Y12708000D01*
X84240666Y12660381D01*
X84002571Y12660381D01*
X83907333Y12708000D01*
X83859714Y12755620D01*
X83812095Y12850858D01*
X83812095Y12946096D01*
X83859714Y13088953D01*
X84431142Y13660381D01*
X83812095Y13660381D01*
X83383523Y13660381D02*
X83383523Y12660381D01*
X82812095Y13660381D02*
X83240666Y13088953D01*
X82812095Y12660381D02*
X83383523Y13231810D01*
X87288285Y2135143D02*
X87335904Y2182762D01*
X87478761Y2230381D01*
X87574000Y2230381D01*
X87716857Y2182762D01*
X87812095Y2087524D01*
X87859714Y1992286D01*
X87907333Y1801810D01*
X87907333Y1658953D01*
X87859714Y1468477D01*
X87812095Y1373239D01*
X87716857Y1278000D01*
X87574000Y1230381D01*
X87478761Y1230381D01*
X87335904Y1278000D01*
X87288285Y1325620D01*
X86859714Y2230381D02*
X86859714Y1230381D01*
X86526380Y1944667D01*
X86193047Y1230381D01*
X86193047Y2230381D01*
X85859714Y1230381D02*
X85288285Y1230381D01*
X85574000Y2230381D02*
X85574000Y1230381D01*
X84193047Y2230381D02*
X84193047Y1230381D01*
X83716857Y2230381D02*
X83716857Y1230381D01*
X83383523Y1944667D01*
X83050190Y1230381D01*
X83050190Y2230381D01*
X82621619Y1944667D02*
X82145428Y1944667D01*
X82716857Y2230381D02*
X82383523Y1230381D01*
X82050190Y2230381D01*
X81193047Y1278000D02*
X81288285Y1230381D01*
X81431142Y1230381D01*
X81574000Y1278000D01*
X81669238Y1373239D01*
X81716857Y1468477D01*
X81764476Y1658953D01*
X81764476Y1801810D01*
X81716857Y1992286D01*
X81669238Y2087524D01*
X81574000Y2182762D01*
X81431142Y2230381D01*
X81335904Y2230381D01*
X81193047Y2182762D01*
X81145428Y2135143D01*
X81145428Y1801810D01*
X81335904Y1801810D01*
X80716857Y1706572D02*
X80383523Y1706572D01*
X80240666Y2230381D02*
X80716857Y2230381D01*
X80716857Y1230381D01*
X80240666Y1230381D01*
D11*
X96774047Y87082143D02*
X96774047Y84082143D01*
X95821666Y84082143D01*
X95583571Y84225000D01*
X95464523Y84367858D01*
X95345476Y84653572D01*
X95345476Y85082143D01*
X95464523Y85367858D01*
X95583571Y85510715D01*
X95821666Y85653572D01*
X96774047Y85653572D01*
X93797857Y85653572D02*
X93797857Y87082143D01*
X94631190Y84082143D02*
X93797857Y85653572D01*
X92964523Y84082143D01*
X92131190Y84082143D02*
X92131190Y86510715D01*
X92012142Y86796429D01*
X91893095Y86939286D01*
X91655000Y87082143D01*
X91178809Y87082143D01*
X90940714Y86939286D01*
X90821666Y86796429D01*
X90702619Y86510715D01*
X90702619Y84082143D01*
X89869285Y84082143D02*
X88440714Y84082143D01*
X89155000Y87082143D02*
X89155000Y84082143D01*
X87726428Y86225000D02*
X86535952Y86225000D01*
X87964523Y87082143D02*
X87131190Y84082143D01*
X86297857Y87082143D01*
X82250238Y84225000D02*
X82488333Y84082143D01*
X82845476Y84082143D01*
X83202619Y84225000D01*
X83440714Y84510715D01*
X83559761Y84796429D01*
X83678809Y85367858D01*
X83678809Y85796429D01*
X83559761Y86367858D01*
X83440714Y86653572D01*
X83202619Y86939286D01*
X82845476Y87082143D01*
X82607380Y87082143D01*
X82250238Y86939286D01*
X82131190Y86796429D01*
X82131190Y85796429D01*
X82607380Y85796429D01*
X81059761Y85939286D02*
X79155000Y85939286D01*
X77131190Y85510715D02*
X76774047Y85653572D01*
X76655000Y85796429D01*
X76535952Y86082143D01*
X76535952Y86510715D01*
X76655000Y86796429D01*
X76774047Y86939286D01*
X77012142Y87082143D01*
X77964523Y87082143D01*
X77964523Y84082143D01*
X77131190Y84082143D01*
X76893095Y84225000D01*
X76774047Y84367858D01*
X76655000Y84653572D01*
X76655000Y84939286D01*
X76774047Y85225000D01*
X76893095Y85367858D01*
X77131190Y85510715D01*
X77964523Y85510715D01*
X75583571Y86225000D02*
X74393095Y86225000D01*
X75821666Y87082143D02*
X74988333Y84082143D01*
X74155000Y87082143D01*
X73440714Y86939286D02*
X73083571Y87082143D01*
X72488333Y87082143D01*
X72250238Y86939286D01*
X72131190Y86796429D01*
X72012142Y86510715D01*
X72012142Y86225000D01*
X72131190Y85939286D01*
X72250238Y85796429D01*
X72488333Y85653572D01*
X72964523Y85510715D01*
X73202619Y85367858D01*
X73321666Y85225000D01*
X73440714Y84939286D01*
X73440714Y84653572D01*
X73321666Y84367858D01*
X73202619Y84225000D01*
X72964523Y84082143D01*
X72369285Y84082143D01*
X72012142Y84225000D01*
X70940714Y87082143D02*
X70940714Y84082143D01*
X68321666Y86796429D02*
X68440714Y86939286D01*
X68797857Y87082143D01*
X69035952Y87082143D01*
X69393095Y86939286D01*
X69631190Y86653572D01*
X69750238Y86367858D01*
X69869285Y85796429D01*
X69869285Y85367858D01*
X69750238Y84796429D01*
X69631190Y84510715D01*
X69393095Y84225000D01*
X69035952Y84082143D01*
X68797857Y84082143D01*
X68440714Y84225000D01*
X68321666Y84367858D01*
X65345476Y87082143D02*
X65345476Y84082143D01*
X64512142Y86225000D01*
X63678809Y84082143D01*
X63678809Y87082143D01*
X62488333Y84082143D02*
X62488333Y86510715D01*
X62369285Y86796429D01*
X62250238Y86939286D01*
X62012142Y87082143D01*
X61535952Y87082143D01*
X61297857Y86939286D01*
X61178809Y86796429D01*
X61059761Y86510715D01*
X61059761Y84082143D01*
X58678809Y87082143D02*
X59869285Y87082143D01*
X59869285Y84082143D01*
X58202619Y84082143D02*
X56774047Y84082143D01*
X57488333Y87082143D02*
X57488333Y84082143D01*
X55940714Y87082143D02*
X55940714Y84082143D01*
X51416904Y86796429D02*
X51535952Y86939286D01*
X51893095Y87082143D01*
X52131190Y87082143D01*
X52488333Y86939286D01*
X52726428Y86653572D01*
X52845476Y86367858D01*
X52964523Y85796429D01*
X52964523Y85367858D01*
X52845476Y84796429D01*
X52726428Y84510715D01*
X52488333Y84225000D01*
X52131190Y84082143D01*
X51893095Y84082143D01*
X51535952Y84225000D01*
X51416904Y84367858D01*
X50464523Y86225000D02*
X49274047Y86225000D01*
X50702619Y87082143D02*
X49869285Y84082143D01*
X49035952Y87082143D01*
X46774047Y87082143D02*
X47607380Y85653572D01*
X48202619Y87082143D02*
X48202619Y84082143D01*
X47250238Y84082143D01*
X47012142Y84225000D01*
X46893095Y84367858D01*
X46774047Y84653572D01*
X46774047Y85082143D01*
X46893095Y85367858D01*
X47012142Y85510715D01*
X47250238Y85653572D01*
X48202619Y85653572D01*
X46059761Y84082143D02*
X44631190Y84082143D01*
X45345476Y87082143D02*
X45345476Y84082143D01*
X42369285Y87082143D02*
X43202619Y85653572D01*
X43797857Y87082143D02*
X43797857Y84082143D01*
X42845476Y84082143D01*
X42607380Y84225000D01*
X42488333Y84367858D01*
X42369285Y84653572D01*
X42369285Y85082143D01*
X42488333Y85367858D01*
X42607380Y85510715D01*
X42845476Y85653572D01*
X43797857Y85653572D01*
X41297857Y87082143D02*
X41297857Y84082143D01*
X40107380Y87082143D02*
X40107380Y84082143D01*
X39512142Y84082143D01*
X39155000Y84225000D01*
X38916904Y84510715D01*
X38797857Y84796429D01*
X38678809Y85367858D01*
X38678809Y85796429D01*
X38797857Y86367858D01*
X38916904Y86653572D01*
X39155000Y86939286D01*
X39512142Y87082143D01*
X40107380Y87082143D01*
X36297857Y84225000D02*
X36535952Y84082143D01*
X36893095Y84082143D01*
X37250238Y84225000D01*
X37488333Y84510715D01*
X37607380Y84796429D01*
X37726428Y85367858D01*
X37726428Y85796429D01*
X37607380Y86367858D01*
X37488333Y86653572D01*
X37250238Y86939286D01*
X36893095Y87082143D01*
X36655000Y87082143D01*
X36297857Y86939286D01*
X36178809Y86796429D01*
X36178809Y85796429D01*
X36655000Y85796429D01*
X35107380Y85510715D02*
X34274047Y85510715D01*
X33916904Y87082143D02*
X35107380Y87082143D01*
X35107380Y84082143D01*
X33916904Y84082143D01*
D10*
X56380000Y61324762D02*
X56427619Y61420000D01*
X56427619Y61562858D01*
X56380000Y61705715D01*
X56284761Y61800953D01*
X56189523Y61848572D01*
X55999047Y61896191D01*
X55856190Y61896191D01*
X55665714Y61848572D01*
X55570476Y61800953D01*
X55475238Y61705715D01*
X55427619Y61562858D01*
X55427619Y61467620D01*
X55475238Y61324762D01*
X55522857Y61277143D01*
X55856190Y61277143D01*
X55856190Y61467620D01*
X55713333Y60896191D02*
X55713333Y60420000D01*
X55427619Y60991429D02*
X56427619Y60658096D01*
X55427619Y60324762D01*
X55427619Y59515239D02*
X55427619Y59991429D01*
X56427619Y59991429D01*
X56332380Y59229524D02*
X56380000Y59181905D01*
X56427619Y59086667D01*
X56427619Y58848572D01*
X56380000Y58753334D01*
X56332380Y58705715D01*
X56237142Y58658096D01*
X56141904Y58658096D01*
X55999047Y58705715D01*
X55427619Y59277143D01*
X55427619Y58658096D01*
X56332380Y58277143D02*
X56380000Y58229524D01*
X56427619Y58134286D01*
X56427619Y57896191D01*
X56380000Y57800953D01*
X56332380Y57753334D01*
X56237142Y57705715D01*
X56141904Y57705715D01*
X55999047Y57753334D01*
X55427619Y58324762D01*
X55427619Y57705715D01*
X56427619Y57420000D02*
X55427619Y57086667D01*
X56427619Y56753334D01*
X55427619Y55896191D02*
X55427619Y56467620D01*
X55427619Y56181905D02*
X56427619Y56181905D01*
X56284761Y56277143D01*
X56189523Y56372381D01*
X56141904Y56467620D01*
X56427619Y55277143D02*
X56427619Y55181905D01*
X56380000Y55086667D01*
X56332380Y55039048D01*
X56237142Y54991429D01*
X56046666Y54943810D01*
X55808571Y54943810D01*
X55618095Y54991429D01*
X55522857Y55039048D01*
X55475238Y55086667D01*
X55427619Y55181905D01*
X55427619Y55277143D01*
X55475238Y55372381D01*
X55522857Y55420000D01*
X55618095Y55467620D01*
X55808571Y55515239D01*
X56046666Y55515239D01*
X56237142Y55467620D01*
X56332380Y55420000D01*
X56380000Y55372381D01*
X56427619Y55277143D01*
X55427619Y78168096D02*
X56427619Y78168096D01*
X55951428Y78168096D02*
X55951428Y77596667D01*
X55427619Y77596667D02*
X56427619Y77596667D01*
X55427619Y77120477D02*
X56427619Y77120477D01*
X55713333Y76787143D01*
X56427619Y76453810D01*
X55427619Y76453810D01*
X56427619Y75549048D02*
X56427619Y75739524D01*
X56380000Y75834762D01*
X56332380Y75882381D01*
X56189523Y75977620D01*
X55999047Y76025239D01*
X55618095Y76025239D01*
X55522857Y75977620D01*
X55475238Y75930000D01*
X55427619Y75834762D01*
X55427619Y75644286D01*
X55475238Y75549048D01*
X55522857Y75501429D01*
X55618095Y75453810D01*
X55856190Y75453810D01*
X55951428Y75501429D01*
X55999047Y75549048D01*
X56046666Y75644286D01*
X56046666Y75834762D01*
X55999047Y75930000D01*
X55951428Y75977620D01*
X55856190Y76025239D01*
X56332380Y75072858D02*
X56380000Y75025239D01*
X56427619Y74930000D01*
X56427619Y74691905D01*
X56380000Y74596667D01*
X56332380Y74549048D01*
X56237142Y74501429D01*
X56141904Y74501429D01*
X55999047Y74549048D01*
X55427619Y75120477D01*
X55427619Y74501429D01*
X56332380Y74120477D02*
X56380000Y74072858D01*
X56427619Y73977620D01*
X56427619Y73739524D01*
X56380000Y73644286D01*
X56332380Y73596667D01*
X56237142Y73549048D01*
X56141904Y73549048D01*
X55999047Y73596667D01*
X55427619Y74168096D01*
X55427619Y73549048D01*
X56427619Y72644286D02*
X56427619Y73120477D01*
X55951428Y73168096D01*
X55999047Y73120477D01*
X56046666Y73025239D01*
X56046666Y72787143D01*
X55999047Y72691905D01*
X55951428Y72644286D01*
X55856190Y72596667D01*
X55618095Y72596667D01*
X55522857Y72644286D01*
X55475238Y72691905D01*
X55427619Y72787143D01*
X55427619Y73025239D01*
X55475238Y73120477D01*
X55522857Y73168096D01*
X56427619Y71739524D02*
X56427619Y71930000D01*
X56380000Y72025239D01*
X56332380Y72072858D01*
X56189523Y72168096D01*
X55999047Y72215715D01*
X55618095Y72215715D01*
X55522857Y72168096D01*
X55475238Y72120477D01*
X55427619Y72025239D01*
X55427619Y71834762D01*
X55475238Y71739524D01*
X55522857Y71691905D01*
X55618095Y71644286D01*
X55856190Y71644286D01*
X55951428Y71691905D01*
X55999047Y71739524D01*
X56046666Y71834762D01*
X56046666Y72025239D01*
X55999047Y72120477D01*
X55951428Y72168096D01*
X55856190Y72215715D01*
X97702619Y74032858D02*
X97702619Y73937620D01*
X97655000Y73842381D01*
X97607380Y73794762D01*
X97512142Y73747143D01*
X97321666Y73699524D01*
X97083571Y73699524D01*
X96893095Y73747143D01*
X96797857Y73794762D01*
X96750238Y73842381D01*
X96702619Y73937620D01*
X96702619Y74032858D01*
X96750238Y74128096D01*
X96797857Y74175715D01*
X96893095Y74223334D01*
X97083571Y74270953D01*
X97321666Y74270953D01*
X97512142Y74223334D01*
X97607380Y74175715D01*
X97655000Y74128096D01*
X97702619Y74032858D01*
X96797857Y73270953D02*
X96750238Y73223334D01*
X96702619Y73270953D01*
X96750238Y73318572D01*
X96797857Y73270953D01*
X96702619Y73270953D01*
X96702619Y72270953D02*
X96702619Y72842381D01*
X96702619Y72556667D02*
X97702619Y72556667D01*
X97559761Y72651905D01*
X97464523Y72747143D01*
X97416904Y72842381D01*
X97369285Y71413810D02*
X96702619Y71413810D01*
X97369285Y71842381D02*
X96845476Y71842381D01*
X96750238Y71794762D01*
X96702619Y71699524D01*
X96702619Y71556667D01*
X96750238Y71461429D01*
X96797857Y71413810D01*
X97226428Y70604286D02*
X97226428Y70937620D01*
X96702619Y70937620D02*
X97702619Y70937620D01*
X97702619Y70461429D01*
X92622619Y57522858D02*
X92622619Y57427620D01*
X92575000Y57332381D01*
X92527380Y57284762D01*
X92432142Y57237143D01*
X92241666Y57189524D01*
X92003571Y57189524D01*
X91813095Y57237143D01*
X91717857Y57284762D01*
X91670238Y57332381D01*
X91622619Y57427620D01*
X91622619Y57522858D01*
X91670238Y57618096D01*
X91717857Y57665715D01*
X91813095Y57713334D01*
X92003571Y57760953D01*
X92241666Y57760953D01*
X92432142Y57713334D01*
X92527380Y57665715D01*
X92575000Y57618096D01*
X92622619Y57522858D01*
X91717857Y56760953D02*
X91670238Y56713334D01*
X91622619Y56760953D01*
X91670238Y56808572D01*
X91717857Y56760953D01*
X91622619Y56760953D01*
X91622619Y55760953D02*
X91622619Y56332381D01*
X91622619Y56046667D02*
X92622619Y56046667D01*
X92479761Y56141905D01*
X92384523Y56237143D01*
X92336904Y56332381D01*
X92289285Y54903810D02*
X91622619Y54903810D01*
X92289285Y55332381D02*
X91765476Y55332381D01*
X91670238Y55284762D01*
X91622619Y55189524D01*
X91622619Y55046667D01*
X91670238Y54951429D01*
X91717857Y54903810D01*
X92146428Y54094286D02*
X92146428Y54427620D01*
X91622619Y54427620D02*
X92622619Y54427620D01*
X92622619Y53951429D01*
D11*
X9398095Y71747143D02*
X9398095Y73747143D01*
X10350476Y70604286D02*
X11302857Y72747143D01*
X8826666Y72747143D01*
X11493333Y51062143D02*
X9017142Y51062143D01*
X10350476Y52205000D01*
X9779047Y52205000D01*
X9398095Y52347858D01*
X9207619Y52490715D01*
X9017142Y52776429D01*
X9017142Y53490715D01*
X9207619Y53776429D01*
X9398095Y53919286D01*
X9779047Y54062143D01*
X10921904Y54062143D01*
X11302857Y53919286D01*
X11493333Y53776429D01*
X11302857Y30392858D02*
X11112380Y30250000D01*
X10731428Y30107143D01*
X9779047Y30107143D01*
X9398095Y30250000D01*
X9207619Y30392858D01*
X9017142Y30678572D01*
X9017142Y30964286D01*
X9207619Y31392858D01*
X11493333Y33107143D01*
X9017142Y33107143D01*
X8382142Y15962143D02*
X10667857Y15962143D01*
X9525000Y15962143D02*
X9525000Y12962143D01*
X9905952Y13390715D01*
X10286904Y13676429D01*
X10667857Y13819286D01*
D10*
X55427619Y35885239D02*
X55427619Y36361429D01*
X56427619Y36361429D01*
X55475238Y35599524D02*
X55427619Y35456667D01*
X55427619Y35218572D01*
X55475238Y35123334D01*
X55522857Y35075715D01*
X55618095Y35028096D01*
X55713333Y35028096D01*
X55808571Y35075715D01*
X55856190Y35123334D01*
X55903809Y35218572D01*
X55951428Y35409048D01*
X55999047Y35504286D01*
X56046666Y35551905D01*
X56141904Y35599524D01*
X56237142Y35599524D01*
X56332380Y35551905D01*
X56380000Y35504286D01*
X56427619Y35409048D01*
X56427619Y35170953D01*
X56380000Y35028096D01*
X55427619Y34075715D02*
X55427619Y34647143D01*
X55427619Y34361429D02*
X56427619Y34361429D01*
X56284761Y34456667D01*
X56189523Y34551905D01*
X56141904Y34647143D01*
X56427619Y33742381D02*
X56427619Y33123334D01*
X56046666Y33456667D01*
X56046666Y33313810D01*
X55999047Y33218572D01*
X55951428Y33170953D01*
X55856190Y33123334D01*
X55618095Y33123334D01*
X55522857Y33170953D01*
X55475238Y33218572D01*
X55427619Y33313810D01*
X55427619Y33599524D01*
X55475238Y33694762D01*
X55522857Y33742381D01*
X55999047Y32551905D02*
X56046666Y32647143D01*
X56094285Y32694762D01*
X56189523Y32742381D01*
X56237142Y32742381D01*
X56332380Y32694762D01*
X56380000Y32647143D01*
X56427619Y32551905D01*
X56427619Y32361429D01*
X56380000Y32266191D01*
X56332380Y32218572D01*
X56237142Y32170953D01*
X56189523Y32170953D01*
X56094285Y32218572D01*
X56046666Y32266191D01*
X55999047Y32361429D01*
X55999047Y32551905D01*
X55951428Y32647143D01*
X55903809Y32694762D01*
X55808571Y32742381D01*
X55618095Y32742381D01*
X55522857Y32694762D01*
X55475238Y32647143D01*
X55427619Y32551905D01*
X55427619Y32361429D01*
X55475238Y32266191D01*
X55522857Y32218572D01*
X55618095Y32170953D01*
X55808571Y32170953D01*
X55903809Y32218572D01*
X55951428Y32266191D01*
X55999047Y32361429D01*
X55427619Y46839048D02*
X55427619Y47315239D01*
X56427619Y47315239D01*
X55475238Y46553334D02*
X55427619Y46410477D01*
X55427619Y46172381D01*
X55475238Y46077143D01*
X55522857Y46029524D01*
X55618095Y45981905D01*
X55713333Y45981905D01*
X55808571Y46029524D01*
X55856190Y46077143D01*
X55903809Y46172381D01*
X55951428Y46362858D01*
X55999047Y46458096D01*
X56046666Y46505715D01*
X56141904Y46553334D01*
X56237142Y46553334D01*
X56332380Y46505715D01*
X56380000Y46458096D01*
X56427619Y46362858D01*
X56427619Y46124762D01*
X56380000Y45981905D01*
X56427619Y45648572D02*
X56427619Y45029524D01*
X56046666Y45362858D01*
X56046666Y45220000D01*
X55999047Y45124762D01*
X55951428Y45077143D01*
X55856190Y45029524D01*
X55618095Y45029524D01*
X55522857Y45077143D01*
X55475238Y45124762D01*
X55427619Y45220000D01*
X55427619Y45505715D01*
X55475238Y45600953D01*
X55522857Y45648572D01*
X56332380Y44648572D02*
X56380000Y44600953D01*
X56427619Y44505715D01*
X56427619Y44267620D01*
X56380000Y44172381D01*
X56332380Y44124762D01*
X56237142Y44077143D01*
X56141904Y44077143D01*
X55999047Y44124762D01*
X55427619Y44696191D01*
X55427619Y44077143D01*
X14422380Y77120477D02*
X14470000Y77072858D01*
X14517619Y76977620D01*
X14517619Y76739524D01*
X14470000Y76644286D01*
X14422380Y76596667D01*
X14327142Y76549048D01*
X14231904Y76549048D01*
X14089047Y76596667D01*
X13517619Y77168096D01*
X13517619Y76549048D01*
X14517619Y76215715D02*
X14517619Y75549048D01*
X13517619Y75977620D01*
X14517619Y74691905D02*
X14517619Y75168096D01*
X14041428Y75215715D01*
X14089047Y75168096D01*
X14136666Y75072858D01*
X14136666Y74834762D01*
X14089047Y74739524D01*
X14041428Y74691905D01*
X13946190Y74644286D01*
X13708095Y74644286D01*
X13612857Y74691905D01*
X13565238Y74739524D01*
X13517619Y74834762D01*
X13517619Y75072858D01*
X13565238Y75168096D01*
X13612857Y75215715D01*
X13517619Y73691905D02*
X13517619Y74263334D01*
X13517619Y73977620D02*
X14517619Y73977620D01*
X14374761Y74072858D01*
X14279523Y74168096D01*
X14231904Y74263334D01*
X14422380Y73310953D02*
X14470000Y73263334D01*
X14517619Y73168096D01*
X14517619Y72930000D01*
X14470000Y72834762D01*
X14422380Y72787143D01*
X14327142Y72739524D01*
X14231904Y72739524D01*
X14089047Y72787143D01*
X13517619Y73358572D01*
X13517619Y72739524D01*
X14422380Y57435477D02*
X14470000Y57387858D01*
X14517619Y57292620D01*
X14517619Y57054524D01*
X14470000Y56959286D01*
X14422380Y56911667D01*
X14327142Y56864048D01*
X14231904Y56864048D01*
X14089047Y56911667D01*
X13517619Y57483096D01*
X13517619Y56864048D01*
X14517619Y56530715D02*
X14517619Y55864048D01*
X13517619Y56292620D01*
X14517619Y55006905D02*
X14517619Y55483096D01*
X14041428Y55530715D01*
X14089047Y55483096D01*
X14136666Y55387858D01*
X14136666Y55149762D01*
X14089047Y55054524D01*
X14041428Y55006905D01*
X13946190Y54959286D01*
X13708095Y54959286D01*
X13612857Y55006905D01*
X13565238Y55054524D01*
X13517619Y55149762D01*
X13517619Y55387858D01*
X13565238Y55483096D01*
X13612857Y55530715D01*
X13517619Y54006905D02*
X13517619Y54578334D01*
X13517619Y54292620D02*
X14517619Y54292620D01*
X14374761Y54387858D01*
X14279523Y54483096D01*
X14231904Y54578334D01*
X14422380Y53625953D02*
X14470000Y53578334D01*
X14517619Y53483096D01*
X14517619Y53245000D01*
X14470000Y53149762D01*
X14422380Y53102143D01*
X14327142Y53054524D01*
X14231904Y53054524D01*
X14089047Y53102143D01*
X13517619Y53673572D01*
X13517619Y53054524D01*
X14422380Y37115477D02*
X14470000Y37067858D01*
X14517619Y36972620D01*
X14517619Y36734524D01*
X14470000Y36639286D01*
X14422380Y36591667D01*
X14327142Y36544048D01*
X14231904Y36544048D01*
X14089047Y36591667D01*
X13517619Y37163096D01*
X13517619Y36544048D01*
X14517619Y36210715D02*
X14517619Y35544048D01*
X13517619Y35972620D01*
X14517619Y34686905D02*
X14517619Y35163096D01*
X14041428Y35210715D01*
X14089047Y35163096D01*
X14136666Y35067858D01*
X14136666Y34829762D01*
X14089047Y34734524D01*
X14041428Y34686905D01*
X13946190Y34639286D01*
X13708095Y34639286D01*
X13612857Y34686905D01*
X13565238Y34734524D01*
X13517619Y34829762D01*
X13517619Y35067858D01*
X13565238Y35163096D01*
X13612857Y35210715D01*
X13517619Y33686905D02*
X13517619Y34258334D01*
X13517619Y33972620D02*
X14517619Y33972620D01*
X14374761Y34067858D01*
X14279523Y34163096D01*
X14231904Y34258334D01*
X14422380Y33305953D02*
X14470000Y33258334D01*
X14517619Y33163096D01*
X14517619Y32925000D01*
X14470000Y32829762D01*
X14422380Y32782143D01*
X14327142Y32734524D01*
X14231904Y32734524D01*
X14089047Y32782143D01*
X13517619Y33353572D01*
X13517619Y32734524D01*
X14422380Y15525477D02*
X14470000Y15477858D01*
X14517619Y15382620D01*
X14517619Y15144524D01*
X14470000Y15049286D01*
X14422380Y15001667D01*
X14327142Y14954048D01*
X14231904Y14954048D01*
X14089047Y15001667D01*
X13517619Y15573096D01*
X13517619Y14954048D01*
X14517619Y14620715D02*
X14517619Y13954048D01*
X13517619Y14382620D01*
X14517619Y13096905D02*
X14517619Y13573096D01*
X14041428Y13620715D01*
X14089047Y13573096D01*
X14136666Y13477858D01*
X14136666Y13239762D01*
X14089047Y13144524D01*
X14041428Y13096905D01*
X13946190Y13049286D01*
X13708095Y13049286D01*
X13612857Y13096905D01*
X13565238Y13144524D01*
X13517619Y13239762D01*
X13517619Y13477858D01*
X13565238Y13573096D01*
X13612857Y13620715D01*
X13517619Y12096905D02*
X13517619Y12668334D01*
X13517619Y12382620D02*
X14517619Y12382620D01*
X14374761Y12477858D01*
X14279523Y12573096D01*
X14231904Y12668334D01*
X14422380Y11715953D02*
X14470000Y11668334D01*
X14517619Y11573096D01*
X14517619Y11335000D01*
X14470000Y11239762D01*
X14422380Y11192143D01*
X14327142Y11144524D01*
X14231904Y11144524D01*
X14089047Y11192143D01*
X13517619Y11763572D01*
X13517619Y11144524D01*
X72572619Y25360239D02*
X72572619Y25931667D01*
X72572619Y25645953D02*
X73572619Y25645953D01*
X73429761Y25741191D01*
X73334523Y25836429D01*
X73286904Y25931667D01*
X73572619Y24741191D02*
X73572619Y24645953D01*
X73525000Y24550715D01*
X73477380Y24503096D01*
X73382142Y24455477D01*
X73191666Y24407858D01*
X72953571Y24407858D01*
X72763095Y24455477D01*
X72667857Y24503096D01*
X72620238Y24550715D01*
X72572619Y24645953D01*
X72572619Y24741191D01*
X72620238Y24836429D01*
X72667857Y24884048D01*
X72763095Y24931667D01*
X72953571Y24979286D01*
X73191666Y24979286D01*
X73382142Y24931667D01*
X73477380Y24884048D01*
X73525000Y24836429D01*
X73572619Y24741191D01*
X72572619Y23979286D02*
X73572619Y23979286D01*
X72953571Y23884048D02*
X72572619Y23598334D01*
X73239285Y23598334D02*
X72858333Y23979286D01*
X67492619Y25360239D02*
X67492619Y25931667D01*
X67492619Y25645953D02*
X68492619Y25645953D01*
X68349761Y25741191D01*
X68254523Y25836429D01*
X68206904Y25931667D01*
X68492619Y24741191D02*
X68492619Y24645953D01*
X68445000Y24550715D01*
X68397380Y24503096D01*
X68302142Y24455477D01*
X68111666Y24407858D01*
X67873571Y24407858D01*
X67683095Y24455477D01*
X67587857Y24503096D01*
X67540238Y24550715D01*
X67492619Y24645953D01*
X67492619Y24741191D01*
X67540238Y24836429D01*
X67587857Y24884048D01*
X67683095Y24931667D01*
X67873571Y24979286D01*
X68111666Y24979286D01*
X68302142Y24931667D01*
X68397380Y24884048D01*
X68445000Y24836429D01*
X68492619Y24741191D01*
X67492619Y23979286D02*
X68492619Y23979286D01*
X67873571Y23884048D02*
X67492619Y23598334D01*
X68159285Y23598334D02*
X67778333Y23979286D01*
X62412619Y25360239D02*
X62412619Y25931667D01*
X62412619Y25645953D02*
X63412619Y25645953D01*
X63269761Y25741191D01*
X63174523Y25836429D01*
X63126904Y25931667D01*
X63412619Y24741191D02*
X63412619Y24645953D01*
X63365000Y24550715D01*
X63317380Y24503096D01*
X63222142Y24455477D01*
X63031666Y24407858D01*
X62793571Y24407858D01*
X62603095Y24455477D01*
X62507857Y24503096D01*
X62460238Y24550715D01*
X62412619Y24645953D01*
X62412619Y24741191D01*
X62460238Y24836429D01*
X62507857Y24884048D01*
X62603095Y24931667D01*
X62793571Y24979286D01*
X63031666Y24979286D01*
X63222142Y24931667D01*
X63317380Y24884048D01*
X63365000Y24836429D01*
X63412619Y24741191D01*
X62412619Y23979286D02*
X63412619Y23979286D01*
X62793571Y23884048D02*
X62412619Y23598334D01*
X63079285Y23598334D02*
X62698333Y23979286D01*
X14152619Y87907620D02*
X14152619Y88479048D01*
X14152619Y88193334D02*
X15152619Y88193334D01*
X15009761Y88288572D01*
X14914523Y88383810D01*
X14866904Y88479048D01*
X15152619Y87288572D02*
X15152619Y87193334D01*
X15105000Y87098096D01*
X15057380Y87050477D01*
X14962142Y87002858D01*
X14771666Y86955239D01*
X14533571Y86955239D01*
X14343095Y87002858D01*
X14247857Y87050477D01*
X14200238Y87098096D01*
X14152619Y87193334D01*
X14152619Y87288572D01*
X14200238Y87383810D01*
X14247857Y87431429D01*
X14343095Y87479048D01*
X14533571Y87526667D01*
X14771666Y87526667D01*
X14962142Y87479048D01*
X15057380Y87431429D01*
X15105000Y87383810D01*
X15152619Y87288572D01*
X15152619Y86336191D02*
X15152619Y86240953D01*
X15105000Y86145715D01*
X15057380Y86098096D01*
X14962142Y86050477D01*
X14771666Y86002858D01*
X14533571Y86002858D01*
X14343095Y86050477D01*
X14247857Y86098096D01*
X14200238Y86145715D01*
X14152619Y86240953D01*
X14152619Y86336191D01*
X14200238Y86431429D01*
X14247857Y86479048D01*
X14343095Y86526667D01*
X14533571Y86574286D01*
X14771666Y86574286D01*
X14962142Y86526667D01*
X15057380Y86479048D01*
X15105000Y86431429D01*
X15152619Y86336191D01*
X14819285Y85145715D02*
X14152619Y85145715D01*
X14819285Y85574286D02*
X14295476Y85574286D01*
X14200238Y85526667D01*
X14152619Y85431429D01*
X14152619Y85288572D01*
X14200238Y85193334D01*
X14247857Y85145715D01*
X14676428Y84336191D02*
X14676428Y84669524D01*
X14152619Y84669524D02*
X15152619Y84669524D01*
X15152619Y84193334D01*
X53252619Y78477858D02*
X53252619Y78382620D01*
X53205000Y78287381D01*
X53157380Y78239762D01*
X53062142Y78192143D01*
X52871666Y78144524D01*
X52633571Y78144524D01*
X52443095Y78192143D01*
X52347857Y78239762D01*
X52300238Y78287381D01*
X52252619Y78382620D01*
X52252619Y78477858D01*
X52300238Y78573096D01*
X52347857Y78620715D01*
X52443095Y78668334D01*
X52633571Y78715953D01*
X52871666Y78715953D01*
X53062142Y78668334D01*
X53157380Y78620715D01*
X53205000Y78573096D01*
X53252619Y78477858D01*
X52347857Y77715953D02*
X52300238Y77668334D01*
X52252619Y77715953D01*
X52300238Y77763572D01*
X52347857Y77715953D01*
X52252619Y77715953D01*
X52252619Y76715953D02*
X52252619Y77287381D01*
X52252619Y77001667D02*
X53252619Y77001667D01*
X53109761Y77096905D01*
X53014523Y77192143D01*
X52966904Y77287381D01*
X52919285Y75858810D02*
X52252619Y75858810D01*
X52919285Y76287381D02*
X52395476Y76287381D01*
X52300238Y76239762D01*
X52252619Y76144524D01*
X52252619Y76001667D01*
X52300238Y75906429D01*
X52347857Y75858810D01*
X52776428Y75049286D02*
X52776428Y75382620D01*
X52252619Y75382620D02*
X53252619Y75382620D01*
X53252619Y74906429D01*
X53252619Y58157858D02*
X53252619Y58062620D01*
X53205000Y57967381D01*
X53157380Y57919762D01*
X53062142Y57872143D01*
X52871666Y57824524D01*
X52633571Y57824524D01*
X52443095Y57872143D01*
X52347857Y57919762D01*
X52300238Y57967381D01*
X52252619Y58062620D01*
X52252619Y58157858D01*
X52300238Y58253096D01*
X52347857Y58300715D01*
X52443095Y58348334D01*
X52633571Y58395953D01*
X52871666Y58395953D01*
X53062142Y58348334D01*
X53157380Y58300715D01*
X53205000Y58253096D01*
X53252619Y58157858D01*
X52347857Y57395953D02*
X52300238Y57348334D01*
X52252619Y57395953D01*
X52300238Y57443572D01*
X52347857Y57395953D01*
X52252619Y57395953D01*
X52252619Y56395953D02*
X52252619Y56967381D01*
X52252619Y56681667D02*
X53252619Y56681667D01*
X53109761Y56776905D01*
X53014523Y56872143D01*
X52966904Y56967381D01*
X52919285Y55538810D02*
X52252619Y55538810D01*
X52919285Y55967381D02*
X52395476Y55967381D01*
X52300238Y55919762D01*
X52252619Y55824524D01*
X52252619Y55681667D01*
X52300238Y55586429D01*
X52347857Y55538810D01*
X52776428Y54729286D02*
X52776428Y55062620D01*
X52252619Y55062620D02*
X53252619Y55062620D01*
X53252619Y54586429D01*
X79922619Y46092858D02*
X79922619Y45997620D01*
X79875000Y45902381D01*
X79827380Y45854762D01*
X79732142Y45807143D01*
X79541666Y45759524D01*
X79303571Y45759524D01*
X79113095Y45807143D01*
X79017857Y45854762D01*
X78970238Y45902381D01*
X78922619Y45997620D01*
X78922619Y46092858D01*
X78970238Y46188096D01*
X79017857Y46235715D01*
X79113095Y46283334D01*
X79303571Y46330953D01*
X79541666Y46330953D01*
X79732142Y46283334D01*
X79827380Y46235715D01*
X79875000Y46188096D01*
X79922619Y46092858D01*
X79017857Y45330953D02*
X78970238Y45283334D01*
X78922619Y45330953D01*
X78970238Y45378572D01*
X79017857Y45330953D01*
X78922619Y45330953D01*
X78922619Y44330953D02*
X78922619Y44902381D01*
X78922619Y44616667D02*
X79922619Y44616667D01*
X79779761Y44711905D01*
X79684523Y44807143D01*
X79636904Y44902381D01*
X79589285Y43473810D02*
X78922619Y43473810D01*
X79589285Y43902381D02*
X79065476Y43902381D01*
X78970238Y43854762D01*
X78922619Y43759524D01*
X78922619Y43616667D01*
X78970238Y43521429D01*
X79017857Y43473810D01*
X79446428Y42664286D02*
X79446428Y42997620D01*
X78922619Y42997620D02*
X79922619Y42997620D01*
X79922619Y42521429D01*
X82462619Y34027858D02*
X82462619Y33932620D01*
X82415000Y33837381D01*
X82367380Y33789762D01*
X82272142Y33742143D01*
X82081666Y33694524D01*
X81843571Y33694524D01*
X81653095Y33742143D01*
X81557857Y33789762D01*
X81510238Y33837381D01*
X81462619Y33932620D01*
X81462619Y34027858D01*
X81510238Y34123096D01*
X81557857Y34170715D01*
X81653095Y34218334D01*
X81843571Y34265953D01*
X82081666Y34265953D01*
X82272142Y34218334D01*
X82367380Y34170715D01*
X82415000Y34123096D01*
X82462619Y34027858D01*
X81557857Y33265953D02*
X81510238Y33218334D01*
X81462619Y33265953D01*
X81510238Y33313572D01*
X81557857Y33265953D01*
X81462619Y33265953D01*
X81462619Y32265953D02*
X81462619Y32837381D01*
X81462619Y32551667D02*
X82462619Y32551667D01*
X82319761Y32646905D01*
X82224523Y32742143D01*
X82176904Y32837381D01*
X82129285Y31408810D02*
X81462619Y31408810D01*
X82129285Y31837381D02*
X81605476Y31837381D01*
X81510238Y31789762D01*
X81462619Y31694524D01*
X81462619Y31551667D01*
X81510238Y31456429D01*
X81557857Y31408810D01*
X81986428Y30599286D02*
X81986428Y30932620D01*
X81462619Y30932620D02*
X82462619Y30932620D01*
X82462619Y30456429D01*
X53252619Y37837858D02*
X53252619Y37742620D01*
X53205000Y37647381D01*
X53157380Y37599762D01*
X53062142Y37552143D01*
X52871666Y37504524D01*
X52633571Y37504524D01*
X52443095Y37552143D01*
X52347857Y37599762D01*
X52300238Y37647381D01*
X52252619Y37742620D01*
X52252619Y37837858D01*
X52300238Y37933096D01*
X52347857Y37980715D01*
X52443095Y38028334D01*
X52633571Y38075953D01*
X52871666Y38075953D01*
X53062142Y38028334D01*
X53157380Y37980715D01*
X53205000Y37933096D01*
X53252619Y37837858D01*
X52347857Y37075953D02*
X52300238Y37028334D01*
X52252619Y37075953D01*
X52300238Y37123572D01*
X52347857Y37075953D01*
X52252619Y37075953D01*
X52252619Y36075953D02*
X52252619Y36647381D01*
X52252619Y36361667D02*
X53252619Y36361667D01*
X53109761Y36456905D01*
X53014523Y36552143D01*
X52966904Y36647381D01*
X52919285Y35218810D02*
X52252619Y35218810D01*
X52919285Y35647381D02*
X52395476Y35647381D01*
X52300238Y35599762D01*
X52252619Y35504524D01*
X52252619Y35361667D01*
X52300238Y35266429D01*
X52347857Y35218810D01*
X52776428Y34409286D02*
X52776428Y34742620D01*
X52252619Y34742620D02*
X53252619Y34742620D01*
X53252619Y34266429D01*
X53252619Y17517858D02*
X53252619Y17422620D01*
X53205000Y17327381D01*
X53157380Y17279762D01*
X53062142Y17232143D01*
X52871666Y17184524D01*
X52633571Y17184524D01*
X52443095Y17232143D01*
X52347857Y17279762D01*
X52300238Y17327381D01*
X52252619Y17422620D01*
X52252619Y17517858D01*
X52300238Y17613096D01*
X52347857Y17660715D01*
X52443095Y17708334D01*
X52633571Y17755953D01*
X52871666Y17755953D01*
X53062142Y17708334D01*
X53157380Y17660715D01*
X53205000Y17613096D01*
X53252619Y17517858D01*
X52347857Y16755953D02*
X52300238Y16708334D01*
X52252619Y16755953D01*
X52300238Y16803572D01*
X52347857Y16755953D01*
X52252619Y16755953D01*
X52252619Y15755953D02*
X52252619Y16327381D01*
X52252619Y16041667D02*
X53252619Y16041667D01*
X53109761Y16136905D01*
X53014523Y16232143D01*
X52966904Y16327381D01*
X52919285Y14898810D02*
X52252619Y14898810D01*
X52919285Y15327381D02*
X52395476Y15327381D01*
X52300238Y15279762D01*
X52252619Y15184524D01*
X52252619Y15041667D01*
X52300238Y14946429D01*
X52347857Y14898810D01*
X52776428Y14089286D02*
X52776428Y14422620D01*
X52252619Y14422620D02*
X53252619Y14422620D01*
X53252619Y13946429D01*
X68865714Y13517620D02*
X68818095Y13470000D01*
X68722857Y13422381D01*
X68484761Y13422381D01*
X68389523Y13470000D01*
X68341904Y13517620D01*
X68294285Y13612858D01*
X68294285Y13708096D01*
X68341904Y13850953D01*
X68913333Y14422381D01*
X68294285Y14422381D01*
X70834285Y14422381D02*
X71405714Y14422381D01*
X71120000Y14422381D02*
X71120000Y13422381D01*
X71215238Y13565239D01*
X71310476Y13660477D01*
X71405714Y13708096D01*
X73707619Y13422381D02*
X73612380Y13422381D01*
X73517142Y13470000D01*
X73469523Y13517620D01*
X73421904Y13612858D01*
X73374285Y13803334D01*
X73374285Y14041429D01*
X73421904Y14231905D01*
X73469523Y14327143D01*
X73517142Y14374762D01*
X73612380Y14422381D01*
X73707619Y14422381D01*
X73802857Y14374762D01*
X73850476Y14327143D01*
X73898095Y14231905D01*
X73945714Y14041429D01*
X73945714Y13803334D01*
X73898095Y13612858D01*
X73850476Y13517620D01*
X73802857Y13470000D01*
X73707619Y13422381D01*
D12*
X75465000Y42310000D02*
X75465000Y46550000D01*
X78205000Y42310000D02*
X78205000Y46550000D01*
X75465000Y42310000D02*
X76170000Y42310000D01*
X77500000Y42310000D02*
X78205000Y42310000D01*
X75465000Y46550000D02*
X76170000Y46550000D01*
X77500000Y46550000D02*
X78205000Y46550000D01*
X78710000Y30285000D02*
X78005000Y30285000D01*
X80745000Y30285000D02*
X80040000Y30285000D01*
X78710000Y34525000D02*
X78005000Y34525000D01*
X80745000Y34525000D02*
X80040000Y34525000D01*
X78005000Y34525000D02*
X78005000Y30285000D01*
X80745000Y34525000D02*
X80745000Y30285000D01*
X54075000Y13570000D02*
X54075000Y9330000D01*
X51335000Y13570000D02*
X51335000Y9330000D01*
X54075000Y13570000D02*
X53370000Y13570000D01*
X52040000Y13570000D02*
X51335000Y13570000D01*
X54075000Y9330000D02*
X53370000Y9330000D01*
X52040000Y9330000D02*
X51335000Y9330000D01*
X52040000Y29650000D02*
X51335000Y29650000D01*
X54075000Y29650000D02*
X53370000Y29650000D01*
X52040000Y33890000D02*
X51335000Y33890000D01*
X54075000Y33890000D02*
X53370000Y33890000D01*
X51335000Y33890000D02*
X51335000Y29650000D01*
X54075000Y33890000D02*
X54075000Y29650000D01*
X52040000Y49970000D02*
X51335000Y49970000D01*
X54075000Y49970000D02*
X53370000Y49970000D01*
X52040000Y54210000D02*
X51335000Y54210000D01*
X54075000Y54210000D02*
X53370000Y54210000D01*
X51335000Y54210000D02*
X51335000Y49970000D01*
X54075000Y54210000D02*
X54075000Y49970000D01*
X54075000Y74530000D02*
X54075000Y70290000D01*
X51335000Y74530000D02*
X51335000Y70290000D01*
X54075000Y74530000D02*
X53370000Y74530000D01*
X52040000Y74530000D02*
X51335000Y74530000D01*
X54075000Y70290000D02*
X53370000Y70290000D01*
X52040000Y70290000D02*
X51335000Y70290000D01*
X74525000Y17050000D02*
X74195000Y17050000D01*
X74195000Y17050000D02*
X74195000Y23590000D01*
X74195000Y23590000D02*
X74525000Y23590000D01*
X76605000Y17050000D02*
X76935000Y17050000D01*
X76935000Y17050000D02*
X76935000Y23590000D01*
X76935000Y23590000D02*
X76605000Y23590000D01*
X71855000Y23590000D02*
X71525000Y23590000D01*
X71855000Y17050000D02*
X71855000Y23590000D01*
X71525000Y17050000D02*
X71855000Y17050000D01*
X69115000Y23590000D02*
X69445000Y23590000D01*
X69115000Y17050000D02*
X69115000Y23590000D01*
X69445000Y17050000D02*
X69115000Y17050000D01*
X64365000Y17050000D02*
X64035000Y17050000D01*
X64035000Y17050000D02*
X64035000Y23590000D01*
X64035000Y23590000D02*
X64365000Y23590000D01*
X66445000Y17050000D02*
X66775000Y17050000D01*
X66775000Y17050000D02*
X66775000Y23590000D01*
X66775000Y23590000D02*
X66445000Y23590000D01*
X66675000Y8223333D02*
X65405000Y8223333D01*
X65475000Y9430000D02*
X65475000Y8223333D01*
X65595000Y9430000D02*
X65595000Y8223333D01*
X65715000Y9430000D02*
X65715000Y8223333D01*
X65835000Y9430000D02*
X65835000Y8223333D01*
X65955000Y9430000D02*
X65955000Y8223333D01*
X66075000Y9430000D02*
X66075000Y8223333D01*
X66195000Y9430000D02*
X66195000Y8223333D01*
X66315000Y9430000D02*
X66315000Y8223333D01*
X66435000Y9430000D02*
X66435000Y8223333D01*
X66555000Y9430000D02*
X66555000Y8223333D01*
X66675000Y5810000D02*
X66675000Y9430000D01*
X65405000Y5810000D02*
X66675000Y5810000D01*
X65405000Y9430000D02*
X65405000Y5810000D01*
X66675000Y9430000D02*
X65405000Y9430000D01*
X69215000Y8223333D02*
X67945000Y8223333D01*
X68015000Y9430000D02*
X68015000Y8223333D01*
X68135000Y9430000D02*
X68135000Y8223333D01*
X68255000Y9430000D02*
X68255000Y8223333D01*
X68375000Y9430000D02*
X68375000Y8223333D01*
X68495000Y9430000D02*
X68495000Y8223333D01*
X68615000Y9430000D02*
X68615000Y8223333D01*
X68735000Y9430000D02*
X68735000Y8223333D01*
X68855000Y9430000D02*
X68855000Y8223333D01*
X68975000Y9430000D02*
X68975000Y8223333D01*
X69095000Y9430000D02*
X69095000Y8223333D01*
X69215000Y5810000D02*
X69215000Y9430000D01*
X67945000Y5810000D02*
X69215000Y5810000D01*
X67945000Y9430000D02*
X67945000Y5810000D01*
X69215000Y9430000D02*
X67945000Y9430000D01*
X71755000Y8223333D02*
X70485000Y8223333D01*
X70555000Y9430000D02*
X70555000Y8223333D01*
X70675000Y9430000D02*
X70675000Y8223333D01*
X70795000Y9430000D02*
X70795000Y8223333D01*
X70915000Y9430000D02*
X70915000Y8223333D01*
X71035000Y9430000D02*
X71035000Y8223333D01*
X71155000Y9430000D02*
X71155000Y8223333D01*
X71275000Y9430000D02*
X71275000Y8223333D01*
X71395000Y9430000D02*
X71395000Y8223333D01*
X71515000Y9430000D02*
X71515000Y8223333D01*
X71635000Y9430000D02*
X71635000Y8223333D01*
X71755000Y5810000D02*
X71755000Y9430000D01*
X70485000Y5810000D02*
X71755000Y5810000D01*
X70485000Y9430000D02*
X70485000Y5810000D01*
X71755000Y9430000D02*
X70485000Y9430000D01*
X74295000Y8223333D02*
X73025000Y8223333D01*
X73095000Y9430000D02*
X73095000Y8223333D01*
X73215000Y9430000D02*
X73215000Y8223333D01*
X73335000Y9430000D02*
X73335000Y8223333D01*
X73455000Y9430000D02*
X73455000Y8223333D01*
X73575000Y9430000D02*
X73575000Y8223333D01*
X73695000Y9430000D02*
X73695000Y8223333D01*
X73815000Y9430000D02*
X73815000Y8223333D01*
X73935000Y9430000D02*
X73935000Y8223333D01*
X74055000Y9430000D02*
X74055000Y8223333D01*
X74175000Y9430000D02*
X74175000Y8223333D01*
X74295000Y5810000D02*
X74295000Y9430000D01*
X73025000Y5810000D02*
X74295000Y5810000D01*
X73025000Y9430000D02*
X73025000Y5810000D01*
X74295000Y9430000D02*
X73025000Y9430000D01*
X76010000Y11270000D02*
X74700000Y11270000D01*
X76010000Y11270000D02*
X76010000Y9887000D01*
X72670000Y4209000D02*
X72109000Y4209000D01*
X75770000Y4209000D02*
X74650000Y4209000D01*
X70130000Y4209000D02*
X69569000Y4209000D01*
X67590000Y4209000D02*
X67029000Y4209000D01*
X65050000Y4209000D02*
X63930000Y4209000D01*
X65050000Y11030000D02*
X63930000Y11030000D01*
X67590000Y11030000D02*
X67029000Y11030000D01*
X70130000Y11030000D02*
X69569000Y11030000D01*
X72620000Y11030000D02*
X72109000Y11030000D01*
X75770000Y11030000D02*
X74700000Y11030000D01*
X63930000Y11030000D02*
X63930000Y4209000D01*
X75770000Y11030000D02*
X75770000Y4209000D01*
X50860000Y5370000D02*
X50860000Y10430000D01*
X15180000Y5370000D02*
X50860000Y5370000D01*
X15180000Y17490000D02*
X15180000Y5370000D01*
X50860000Y17490000D02*
X15180000Y17490000D01*
X50860000Y12430000D02*
X50860000Y17490000D01*
X50860000Y10430000D02*
G75*
G02*
X50860000Y12430000I0J1000000D01*
G01*
X50860000Y25690000D02*
X50860000Y30750000D01*
X15180000Y25690000D02*
X50860000Y25690000D01*
X15180000Y37810000D02*
X15180000Y25690000D01*
X50860000Y37810000D02*
X15180000Y37810000D01*
X50860000Y32750000D02*
X50860000Y37810000D01*
X50860000Y30750000D02*
G75*
G02*
X50860000Y32750000I0J1000000D01*
G01*
X50860000Y53070000D02*
X50860000Y58130000D01*
X50860000Y58130000D02*
X15180000Y58130000D01*
X15180000Y58130000D02*
X15180000Y46010000D01*
X15180000Y46010000D02*
X50860000Y46010000D01*
X50860000Y46010000D02*
X50860000Y51070000D01*
X50860000Y51070000D02*
G75*
G02*
X50860000Y53070000I0J1000000D01*
G01*
X50860000Y73390000D02*
X50860000Y78450000D01*
X50860000Y78450000D02*
X15180000Y78450000D01*
X15180000Y78450000D02*
X15180000Y66330000D01*
X15180000Y66330000D02*
X50860000Y66330000D01*
X50860000Y66330000D02*
X50860000Y71390000D01*
X50860000Y71390000D02*
G75*
G02*
X50860000Y73390000I0J1000000D01*
G01*
X77530000Y30135000D02*
X77530000Y31385000D01*
X57090000Y30135000D02*
X77530000Y30135000D01*
X57090000Y34635000D02*
X57090000Y30135000D01*
X77530000Y34635000D02*
X57090000Y34635000D01*
X77530000Y33385000D02*
X77530000Y34635000D01*
X77530000Y31385000D02*
G75*
G02*
X77530000Y33385000I0J1000000D01*
G01*
X74990000Y42200000D02*
X74990000Y43450000D01*
X57090000Y42200000D02*
X74990000Y42200000D01*
X57090000Y46700000D02*
X57090000Y42200000D01*
X74990000Y46700000D02*
X57090000Y46700000D01*
X74990000Y45450000D02*
X74990000Y46700000D01*
X74990000Y43450000D02*
G75*
G02*
X74990000Y45450000I0J1000000D01*
G01*
X20140000Y88934775D02*
X19640000Y88934775D01*
X19890000Y89184775D02*
X19890000Y88684775D01*
X18699000Y83779000D02*
X18131000Y83779000D01*
X18933000Y83819000D02*
X17897000Y83819000D01*
X19092000Y83859000D02*
X17738000Y83859000D01*
X19220000Y83899000D02*
X17610000Y83899000D01*
X19330000Y83939000D02*
X17500000Y83939000D01*
X19426000Y83979000D02*
X17404000Y83979000D01*
X19513000Y84019000D02*
X17317000Y84019000D01*
X19593000Y84059000D02*
X17237000Y84059000D01*
X17375000Y84099000D02*
X17164000Y84099000D01*
X19666000Y84099000D02*
X19455000Y84099000D01*
X17375000Y84139000D02*
X17096000Y84139000D01*
X19734000Y84139000D02*
X19455000Y84139000D01*
X17375000Y84179000D02*
X17032000Y84179000D01*
X19798000Y84179000D02*
X19455000Y84179000D01*
X17375000Y84219000D02*
X16972000Y84219000D01*
X19858000Y84219000D02*
X19455000Y84219000D01*
X17375000Y84259000D02*
X16915000Y84259000D01*
X19915000Y84259000D02*
X19455000Y84259000D01*
X17375000Y84299000D02*
X16861000Y84299000D01*
X19969000Y84299000D02*
X19455000Y84299000D01*
X17375000Y84339000D02*
X16810000Y84339000D01*
X20020000Y84339000D02*
X19455000Y84339000D01*
X17375000Y84379000D02*
X16762000Y84379000D01*
X20068000Y84379000D02*
X19455000Y84379000D01*
X17375000Y84419000D02*
X16716000Y84419000D01*
X20114000Y84419000D02*
X19455000Y84419000D01*
X17375000Y84459000D02*
X16672000Y84459000D01*
X20158000Y84459000D02*
X19455000Y84459000D01*
X17375000Y84499000D02*
X16630000Y84499000D01*
X20200000Y84499000D02*
X19455000Y84499000D01*
X17375000Y84539000D02*
X16589000Y84539000D01*
X20241000Y84539000D02*
X19455000Y84539000D01*
X17375000Y84579000D02*
X16551000Y84579000D01*
X20279000Y84579000D02*
X19455000Y84579000D01*
X17375000Y84619000D02*
X16514000Y84619000D01*
X20316000Y84619000D02*
X19455000Y84619000D01*
X17375000Y84659000D02*
X16478000Y84659000D01*
X20352000Y84659000D02*
X19455000Y84659000D01*
X17375000Y84699000D02*
X16444000Y84699000D01*
X20386000Y84699000D02*
X19455000Y84699000D01*
X17375000Y84739000D02*
X16411000Y84739000D01*
X20419000Y84739000D02*
X19455000Y84739000D01*
X17375000Y84779000D02*
X16380000Y84779000D01*
X20450000Y84779000D02*
X19455000Y84779000D01*
X17375000Y84819000D02*
X16350000Y84819000D01*
X20480000Y84819000D02*
X19455000Y84819000D01*
X17375000Y84859000D02*
X16320000Y84859000D01*
X20510000Y84859000D02*
X19455000Y84859000D01*
X17375000Y84899000D02*
X16293000Y84899000D01*
X20537000Y84899000D02*
X19455000Y84899000D01*
X17375000Y84939000D02*
X16266000Y84939000D01*
X20564000Y84939000D02*
X19455000Y84939000D01*
X17375000Y84979000D02*
X16240000Y84979000D01*
X20590000Y84979000D02*
X19455000Y84979000D01*
X17375000Y85019000D02*
X16215000Y85019000D01*
X20615000Y85019000D02*
X19455000Y85019000D01*
X17375000Y85059000D02*
X16191000Y85059000D01*
X20639000Y85059000D02*
X19455000Y85059000D01*
X17375000Y85099000D02*
X16168000Y85099000D01*
X20662000Y85099000D02*
X19455000Y85099000D01*
X17375000Y85139000D02*
X16147000Y85139000D01*
X20683000Y85139000D02*
X19455000Y85139000D01*
X17375000Y85179000D02*
X16125000Y85179000D01*
X20705000Y85179000D02*
X19455000Y85179000D01*
X17375000Y85219000D02*
X16105000Y85219000D01*
X20725000Y85219000D02*
X19455000Y85219000D01*
X17375000Y85259000D02*
X16086000Y85259000D01*
X20744000Y85259000D02*
X19455000Y85259000D01*
X17375000Y85299000D02*
X16067000Y85299000D01*
X20763000Y85299000D02*
X19455000Y85299000D01*
X17375000Y85339000D02*
X16050000Y85339000D01*
X20780000Y85339000D02*
X19455000Y85339000D01*
X17375000Y85379000D02*
X16033000Y85379000D01*
X20797000Y85379000D02*
X19455000Y85379000D01*
X17375000Y85419000D02*
X16017000Y85419000D01*
X20813000Y85419000D02*
X19455000Y85419000D01*
X17375000Y85459000D02*
X16001000Y85459000D01*
X20829000Y85459000D02*
X19455000Y85459000D01*
X17375000Y85499000D02*
X15987000Y85499000D01*
X20843000Y85499000D02*
X19455000Y85499000D01*
X17375000Y85539000D02*
X15973000Y85539000D01*
X20857000Y85539000D02*
X19455000Y85539000D01*
X17375000Y85579000D02*
X15960000Y85579000D01*
X20870000Y85579000D02*
X19455000Y85579000D01*
X17375000Y85619000D02*
X15947000Y85619000D01*
X20883000Y85619000D02*
X19455000Y85619000D01*
X17375000Y85659000D02*
X15935000Y85659000D01*
X20895000Y85659000D02*
X19455000Y85659000D01*
X17375000Y85700000D02*
X15924000Y85700000D01*
X20906000Y85700000D02*
X19455000Y85700000D01*
X17375000Y85740000D02*
X15914000Y85740000D01*
X20916000Y85740000D02*
X19455000Y85740000D01*
X17375000Y85780000D02*
X15904000Y85780000D01*
X20926000Y85780000D02*
X19455000Y85780000D01*
X17375000Y85820000D02*
X15895000Y85820000D01*
X20935000Y85820000D02*
X19455000Y85820000D01*
X17375000Y85860000D02*
X15887000Y85860000D01*
X20943000Y85860000D02*
X19455000Y85860000D01*
X17375000Y85900000D02*
X15879000Y85900000D01*
X20951000Y85900000D02*
X19455000Y85900000D01*
X17375000Y85940000D02*
X15872000Y85940000D01*
X20958000Y85940000D02*
X19455000Y85940000D01*
X17375000Y85980000D02*
X15865000Y85980000D01*
X20965000Y85980000D02*
X19455000Y85980000D01*
X17375000Y86020000D02*
X15859000Y86020000D01*
X20971000Y86020000D02*
X19455000Y86020000D01*
X17375000Y86060000D02*
X15854000Y86060000D01*
X20976000Y86060000D02*
X19455000Y86060000D01*
X17375000Y86100000D02*
X15850000Y86100000D01*
X20980000Y86100000D02*
X19455000Y86100000D01*
X17375000Y86140000D02*
X15846000Y86140000D01*
X20984000Y86140000D02*
X19455000Y86140000D01*
X20988000Y86180000D02*
X15842000Y86180000D01*
X20991000Y86220000D02*
X15839000Y86220000D01*
X20993000Y86260000D02*
X15837000Y86260000D01*
X20994000Y86300000D02*
X15836000Y86300000D01*
X20995000Y86340000D02*
X15835000Y86340000D01*
X20995000Y86380000D02*
X15835000Y86380000D01*
X21035000Y86380000D02*
G75*
G03*
X21035000Y86380000I-2620000J0D01*
G01*
X90905000Y58020000D02*
X90905000Y53780000D01*
X88165000Y58020000D02*
X88165000Y53780000D01*
X90905000Y58020000D02*
X90200000Y58020000D01*
X88870000Y58020000D02*
X88165000Y58020000D01*
X90905000Y53780000D02*
X90200000Y53780000D01*
X88870000Y53780000D02*
X88165000Y53780000D01*
X95985000Y74530000D02*
X95985000Y70290000D01*
X93245000Y74530000D02*
X93245000Y70290000D01*
X95985000Y74530000D02*
X95280000Y74530000D01*
X93950000Y74530000D02*
X93245000Y74530000D01*
X95985000Y70290000D02*
X95280000Y70290000D01*
X93950000Y70290000D02*
X93245000Y70290000D01*
X87690000Y53630000D02*
X87690000Y54880000D01*
X57090000Y53630000D02*
X87690000Y53630000D01*
X57090000Y58130000D02*
X57090000Y53630000D01*
X87690000Y58130000D02*
X57090000Y58130000D01*
X87690000Y56880000D02*
X87690000Y58130000D01*
X87690000Y54880000D02*
G75*
G02*
X87690000Y56880000I0J1000000D01*
G01*
X92770000Y66330000D02*
X92770000Y71390000D01*
X57090000Y66330000D02*
X92770000Y66330000D01*
X57090000Y78450000D02*
X57090000Y66330000D01*
X92770000Y78450000D02*
X57090000Y78450000D01*
X92770000Y73390000D02*
X92770000Y78450000D01*
X92770000Y71390000D02*
G75*
G02*
X92770000Y73390000I0J1000000D01*
G01*
X86765000Y23639000D02*
X87095000Y23639000D01*
X87095000Y23639000D02*
X87095000Y17099000D01*
X87095000Y17099000D02*
X86765000Y17099000D01*
X84685000Y23639000D02*
X84355000Y23639000D01*
X84355000Y23639000D02*
X84355000Y17099000D01*
X84355000Y17099000D02*
X84685000Y17099000D01*
X79182000Y17099000D02*
X79512000Y17099000D01*
X79182000Y23639000D02*
X79182000Y17099000D01*
X79512000Y23639000D02*
X79182000Y23639000D01*
X81922000Y17099000D02*
X81592000Y17099000D01*
X81922000Y23639000D02*
X81922000Y17099000D01*
X81592000Y23639000D02*
X81922000Y23639000D01*
X85404000Y3750000D02*
X84074000Y3750000D01*
X85404000Y5080000D02*
X85404000Y3750000D01*
X85404000Y6350000D02*
X82744000Y6350000D01*
X82744000Y6350000D02*
X82744000Y11490000D01*
X85404000Y6350000D02*
X85404000Y11490000D01*
X85404000Y11490000D02*
X82744000Y11490000D01*
X87400000Y46450000D02*
X87730000Y46450000D01*
X87730000Y46450000D02*
X87730000Y39910000D01*
X87730000Y39910000D02*
X87400000Y39910000D01*
X85320000Y46450000D02*
X84990000Y46450000D01*
X84990000Y46450000D02*
X84990000Y39910000D01*
X84990000Y39910000D02*
X85320000Y39910000D01*
X96460000Y28515000D02*
X99120000Y28515000D01*
X96460000Y33655000D02*
X96460000Y28515000D01*
X99120000Y33655000D02*
X99120000Y28515000D01*
X96460000Y33655000D02*
X99120000Y33655000D01*
X96460000Y34925000D02*
X96460000Y36255000D01*
X96460000Y36255000D02*
X97790000Y36255000D01*
X80705000Y97850000D02*
X80705000Y92710000D01*
X80705000Y97850000D02*
X17085000Y97850000D01*
X17085000Y97850000D02*
X17085000Y90110000D01*
X78105000Y90110000D02*
X17085000Y90110000D01*
X78105000Y92710000D02*
X78105000Y90110000D01*
X80705000Y92710000D02*
X78105000Y92710000D01*
X80705000Y90110000D02*
X79375000Y90110000D01*
X80705000Y91440000D02*
X80705000Y90110000D01*
D10*
X76477857Y40806667D02*
X76430238Y40854286D01*
X76382619Y40997143D01*
X76382619Y41092381D01*
X76430238Y41235239D01*
X76525476Y41330477D01*
X76620714Y41378096D01*
X76811190Y41425715D01*
X76954047Y41425715D01*
X77144523Y41378096D01*
X77239761Y41330477D01*
X77335000Y41235239D01*
X77382619Y41092381D01*
X77382619Y40997143D01*
X77335000Y40854286D01*
X77287380Y40806667D01*
X76954047Y40235239D02*
X77001666Y40330477D01*
X77049285Y40378096D01*
X77144523Y40425715D01*
X77192142Y40425715D01*
X77287380Y40378096D01*
X77335000Y40330477D01*
X77382619Y40235239D01*
X77382619Y40044762D01*
X77335000Y39949524D01*
X77287380Y39901905D01*
X77192142Y39854286D01*
X77144523Y39854286D01*
X77049285Y39901905D01*
X77001666Y39949524D01*
X76954047Y40044762D01*
X76954047Y40235239D01*
X76906428Y40330477D01*
X76858809Y40378096D01*
X76763571Y40425715D01*
X76573095Y40425715D01*
X76477857Y40378096D01*
X76430238Y40330477D01*
X76382619Y40235239D01*
X76382619Y40044762D01*
X76430238Y39949524D01*
X76477857Y39901905D01*
X76573095Y39854286D01*
X76763571Y39854286D01*
X76858809Y39901905D01*
X76906428Y39949524D01*
X76954047Y40044762D01*
X79017857Y28741667D02*
X78970238Y28789286D01*
X78922619Y28932143D01*
X78922619Y29027381D01*
X78970238Y29170239D01*
X79065476Y29265477D01*
X79160714Y29313096D01*
X79351190Y29360715D01*
X79494047Y29360715D01*
X79684523Y29313096D01*
X79779761Y29265477D01*
X79875000Y29170239D01*
X79922619Y29027381D01*
X79922619Y28932143D01*
X79875000Y28789286D01*
X79827380Y28741667D01*
X79827380Y28360715D02*
X79875000Y28313096D01*
X79922619Y28217858D01*
X79922619Y27979762D01*
X79875000Y27884524D01*
X79827380Y27836905D01*
X79732142Y27789286D01*
X79636904Y27789286D01*
X79494047Y27836905D01*
X78922619Y28408334D01*
X78922619Y27789286D01*
X52347857Y7786667D02*
X52300238Y7834286D01*
X52252619Y7977143D01*
X52252619Y8072381D01*
X52300238Y8215239D01*
X52395476Y8310477D01*
X52490714Y8358096D01*
X52681190Y8405715D01*
X52824047Y8405715D01*
X53014523Y8358096D01*
X53109761Y8310477D01*
X53205000Y8215239D01*
X53252619Y8072381D01*
X53252619Y7977143D01*
X53205000Y7834286D01*
X53157380Y7786667D01*
X53252619Y7453334D02*
X53252619Y6834286D01*
X52871666Y7167620D01*
X52871666Y7024762D01*
X52824047Y6929524D01*
X52776428Y6881905D01*
X52681190Y6834286D01*
X52443095Y6834286D01*
X52347857Y6881905D01*
X52300238Y6929524D01*
X52252619Y7024762D01*
X52252619Y7310477D01*
X52300238Y7405715D01*
X52347857Y7453334D01*
X52347857Y28106667D02*
X52300238Y28154286D01*
X52252619Y28297143D01*
X52252619Y28392381D01*
X52300238Y28535239D01*
X52395476Y28630477D01*
X52490714Y28678096D01*
X52681190Y28725715D01*
X52824047Y28725715D01*
X53014523Y28678096D01*
X53109761Y28630477D01*
X53205000Y28535239D01*
X53252619Y28392381D01*
X53252619Y28297143D01*
X53205000Y28154286D01*
X53157380Y28106667D01*
X52919285Y27249524D02*
X52252619Y27249524D01*
X53300238Y27487620D02*
X52585952Y27725715D01*
X52585952Y27106667D01*
X52347857Y48426667D02*
X52300238Y48474286D01*
X52252619Y48617143D01*
X52252619Y48712381D01*
X52300238Y48855239D01*
X52395476Y48950477D01*
X52490714Y48998096D01*
X52681190Y49045715D01*
X52824047Y49045715D01*
X53014523Y48998096D01*
X53109761Y48950477D01*
X53205000Y48855239D01*
X53252619Y48712381D01*
X53252619Y48617143D01*
X53205000Y48474286D01*
X53157380Y48426667D01*
X53252619Y47521905D02*
X53252619Y47998096D01*
X52776428Y48045715D01*
X52824047Y47998096D01*
X52871666Y47902858D01*
X52871666Y47664762D01*
X52824047Y47569524D01*
X52776428Y47521905D01*
X52681190Y47474286D01*
X52443095Y47474286D01*
X52347857Y47521905D01*
X52300238Y47569524D01*
X52252619Y47664762D01*
X52252619Y47902858D01*
X52300238Y47998096D01*
X52347857Y48045715D01*
X52347857Y68746667D02*
X52300238Y68794286D01*
X52252619Y68937143D01*
X52252619Y69032381D01*
X52300238Y69175239D01*
X52395476Y69270477D01*
X52490714Y69318096D01*
X52681190Y69365715D01*
X52824047Y69365715D01*
X53014523Y69318096D01*
X53109761Y69270477D01*
X53205000Y69175239D01*
X53252619Y69032381D01*
X53252619Y68937143D01*
X53205000Y68794286D01*
X53157380Y68746667D01*
X53252619Y67889524D02*
X53252619Y68080000D01*
X53205000Y68175239D01*
X53157380Y68222858D01*
X53014523Y68318096D01*
X52824047Y68365715D01*
X52443095Y68365715D01*
X52347857Y68318096D01*
X52300238Y68270477D01*
X52252619Y68175239D01*
X52252619Y67984762D01*
X52300238Y67889524D01*
X52347857Y67841905D01*
X52443095Y67794286D01*
X52681190Y67794286D01*
X52776428Y67841905D01*
X52824047Y67889524D01*
X52871666Y67984762D01*
X52871666Y68175239D01*
X52824047Y68270477D01*
X52776428Y68318096D01*
X52681190Y68365715D01*
X72742619Y17946667D02*
X73218809Y18280000D01*
X72742619Y18518096D02*
X73742619Y18518096D01*
X73742619Y18137143D01*
X73695000Y18041905D01*
X73647380Y17994286D01*
X73552142Y17946667D01*
X73409285Y17946667D01*
X73314047Y17994286D01*
X73266428Y18041905D01*
X73218809Y18137143D01*
X73218809Y18518096D01*
X72742619Y16994286D02*
X72742619Y17565715D01*
X72742619Y17280000D02*
X73742619Y17280000D01*
X73599761Y17375239D01*
X73504523Y17470477D01*
X73456904Y17565715D01*
X67662619Y17946667D02*
X68138809Y18280000D01*
X67662619Y18518096D02*
X68662619Y18518096D01*
X68662619Y18137143D01*
X68615000Y18041905D01*
X68567380Y17994286D01*
X68472142Y17946667D01*
X68329285Y17946667D01*
X68234047Y17994286D01*
X68186428Y18041905D01*
X68138809Y18137143D01*
X68138809Y18518096D01*
X68567380Y17565715D02*
X68615000Y17518096D01*
X68662619Y17422858D01*
X68662619Y17184762D01*
X68615000Y17089524D01*
X68567380Y17041905D01*
X68472142Y16994286D01*
X68376904Y16994286D01*
X68234047Y17041905D01*
X67662619Y17613334D01*
X67662619Y16994286D01*
X62582619Y17946667D02*
X63058809Y18280000D01*
X62582619Y18518096D02*
X63582619Y18518096D01*
X63582619Y18137143D01*
X63535000Y18041905D01*
X63487380Y17994286D01*
X63392142Y17946667D01*
X63249285Y17946667D01*
X63154047Y17994286D01*
X63106428Y18041905D01*
X63058809Y18137143D01*
X63058809Y18518096D01*
X63582619Y17613334D02*
X63582619Y16994286D01*
X63201666Y17327620D01*
X63201666Y17184762D01*
X63154047Y17089524D01*
X63106428Y17041905D01*
X63011190Y16994286D01*
X62773095Y16994286D01*
X62677857Y17041905D01*
X62630238Y17089524D01*
X62582619Y17184762D01*
X62582619Y17470477D01*
X62630238Y17565715D01*
X62677857Y17613334D01*
X78803333Y8024762D02*
X78660476Y8072381D01*
X78422380Y8072381D01*
X78327142Y8024762D01*
X78279523Y7977143D01*
X78231904Y7881905D01*
X78231904Y7786667D01*
X78279523Y7691429D01*
X78327142Y7643810D01*
X78422380Y7596191D01*
X78612857Y7548572D01*
X78708095Y7500953D01*
X78755714Y7453334D01*
X78803333Y7358096D01*
X78803333Y7262858D01*
X78755714Y7167620D01*
X78708095Y7120000D01*
X78612857Y7072381D01*
X78374761Y7072381D01*
X78231904Y7120000D01*
X77898571Y7072381D02*
X77660476Y8072381D01*
X77470000Y7358096D01*
X77279523Y8072381D01*
X77041428Y7072381D01*
X76136666Y8072381D02*
X76708095Y8072381D01*
X76422380Y8072381D02*
X76422380Y7072381D01*
X76517619Y7215239D01*
X76612857Y7310477D01*
X76708095Y7358096D01*
X14517619Y7111905D02*
X13708095Y7111905D01*
X13612857Y7064286D01*
X13565238Y7016667D01*
X13517619Y6921429D01*
X13517619Y6730953D01*
X13565238Y6635715D01*
X13612857Y6588096D01*
X13708095Y6540477D01*
X14517619Y6540477D01*
X14517619Y6159524D02*
X14517619Y5540477D01*
X14136666Y5873810D01*
X14136666Y5730953D01*
X14089047Y5635715D01*
X14041428Y5588096D01*
X13946190Y5540477D01*
X13708095Y5540477D01*
X13612857Y5588096D01*
X13565238Y5635715D01*
X13517619Y5730953D01*
X13517619Y6016667D01*
X13565238Y6111905D01*
X13612857Y6159524D01*
X14517619Y27431905D02*
X13708095Y27431905D01*
X13612857Y27384286D01*
X13565238Y27336667D01*
X13517619Y27241429D01*
X13517619Y27050953D01*
X13565238Y26955715D01*
X13612857Y26908096D01*
X13708095Y26860477D01*
X14517619Y26860477D01*
X14184285Y25955715D02*
X13517619Y25955715D01*
X14565238Y26193810D02*
X13850952Y26431905D01*
X13850952Y25812858D01*
X14517619Y47751905D02*
X13708095Y47751905D01*
X13612857Y47704286D01*
X13565238Y47656667D01*
X13517619Y47561429D01*
X13517619Y47370953D01*
X13565238Y47275715D01*
X13612857Y47228096D01*
X13708095Y47180477D01*
X14517619Y47180477D01*
X14517619Y46228096D02*
X14517619Y46704286D01*
X14041428Y46751905D01*
X14089047Y46704286D01*
X14136666Y46609048D01*
X14136666Y46370953D01*
X14089047Y46275715D01*
X14041428Y46228096D01*
X13946190Y46180477D01*
X13708095Y46180477D01*
X13612857Y46228096D01*
X13565238Y46275715D01*
X13517619Y46370953D01*
X13517619Y46609048D01*
X13565238Y46704286D01*
X13612857Y46751905D01*
X14517619Y68071905D02*
X13708095Y68071905D01*
X13612857Y68024286D01*
X13565238Y67976667D01*
X13517619Y67881429D01*
X13517619Y67690953D01*
X13565238Y67595715D01*
X13612857Y67548096D01*
X13708095Y67500477D01*
X14517619Y67500477D01*
X14517619Y66595715D02*
X14517619Y66786191D01*
X14470000Y66881429D01*
X14422380Y66929048D01*
X14279523Y67024286D01*
X14089047Y67071905D01*
X13708095Y67071905D01*
X13612857Y67024286D01*
X13565238Y66976667D01*
X13517619Y66881429D01*
X13517619Y66690953D01*
X13565238Y66595715D01*
X13612857Y66548096D01*
X13708095Y66500477D01*
X13946190Y66500477D01*
X14041428Y66548096D01*
X14089047Y66595715D01*
X14136666Y66690953D01*
X14136666Y66881429D01*
X14089047Y66976667D01*
X14041428Y67024286D01*
X13946190Y67071905D01*
X56427619Y30606905D02*
X55618095Y30606905D01*
X55522857Y30559286D01*
X55475238Y30511667D01*
X55427619Y30416429D01*
X55427619Y30225953D01*
X55475238Y30130715D01*
X55522857Y30083096D01*
X55618095Y30035477D01*
X56427619Y30035477D01*
X56332380Y29606905D02*
X56380000Y29559286D01*
X56427619Y29464048D01*
X56427619Y29225953D01*
X56380000Y29130715D01*
X56332380Y29083096D01*
X56237142Y29035477D01*
X56141904Y29035477D01*
X55999047Y29083096D01*
X55427619Y29654524D01*
X55427619Y29035477D01*
X56427619Y42671905D02*
X55618095Y42671905D01*
X55522857Y42624286D01*
X55475238Y42576667D01*
X55427619Y42481429D01*
X55427619Y42290953D01*
X55475238Y42195715D01*
X55522857Y42148096D01*
X55618095Y42100477D01*
X56427619Y42100477D01*
X55427619Y41100477D02*
X55427619Y41671905D01*
X55427619Y41386191D02*
X56427619Y41386191D01*
X56284761Y41481429D01*
X56189523Y41576667D01*
X56141904Y41671905D01*
X21867857Y86526667D02*
X21820238Y86574286D01*
X21772619Y86717143D01*
X21772619Y86812381D01*
X21820238Y86955239D01*
X21915476Y87050477D01*
X22010714Y87098096D01*
X22201190Y87145715D01*
X22344047Y87145715D01*
X22534523Y87098096D01*
X22629761Y87050477D01*
X22725000Y86955239D01*
X22772619Y86812381D01*
X22772619Y86717143D01*
X22725000Y86574286D01*
X22677380Y86526667D01*
X21772619Y85574286D02*
X21772619Y86145715D01*
X21772619Y85860000D02*
X22772619Y85860000D01*
X22629761Y85955239D01*
X22534523Y86050477D01*
X22486904Y86145715D01*
X89177857Y52236667D02*
X89130238Y52284286D01*
X89082619Y52427143D01*
X89082619Y52522381D01*
X89130238Y52665239D01*
X89225476Y52760477D01*
X89320714Y52808096D01*
X89511190Y52855715D01*
X89654047Y52855715D01*
X89844523Y52808096D01*
X89939761Y52760477D01*
X90035000Y52665239D01*
X90082619Y52522381D01*
X90082619Y52427143D01*
X90035000Y52284286D01*
X89987380Y52236667D01*
X90082619Y51903334D02*
X90082619Y51236667D01*
X89082619Y51665239D01*
X94257857Y68111667D02*
X94210238Y68159286D01*
X94162619Y68302143D01*
X94162619Y68397381D01*
X94210238Y68540239D01*
X94305476Y68635477D01*
X94400714Y68683096D01*
X94591190Y68730715D01*
X94734047Y68730715D01*
X94924523Y68683096D01*
X95019761Y68635477D01*
X95115000Y68540239D01*
X95162619Y68397381D01*
X95162619Y68302143D01*
X95115000Y68159286D01*
X95067380Y68111667D01*
X94162619Y67635477D02*
X94162619Y67445000D01*
X94210238Y67349762D01*
X94257857Y67302143D01*
X94400714Y67206905D01*
X94591190Y67159286D01*
X94972142Y67159286D01*
X95067380Y67206905D01*
X95115000Y67254524D01*
X95162619Y67349762D01*
X95162619Y67540239D01*
X95115000Y67635477D01*
X95067380Y67683096D01*
X94972142Y67730715D01*
X94734047Y67730715D01*
X94638809Y67683096D01*
X94591190Y67635477D01*
X94543571Y67540239D01*
X94543571Y67349762D01*
X94591190Y67254524D01*
X94638809Y67206905D01*
X94734047Y67159286D01*
X56427619Y53466905D02*
X55618095Y53466905D01*
X55522857Y53419286D01*
X55475238Y53371667D01*
X55427619Y53276429D01*
X55427619Y53085953D01*
X55475238Y52990715D01*
X55522857Y52943096D01*
X55618095Y52895477D01*
X56427619Y52895477D01*
X56427619Y52514524D02*
X56427619Y51847858D01*
X55427619Y52276429D01*
X56427619Y67436905D02*
X55618095Y67436905D01*
X55522857Y67389286D01*
X55475238Y67341667D01*
X55427619Y67246429D01*
X55427619Y67055953D01*
X55475238Y66960715D01*
X55522857Y66913096D01*
X55618095Y66865477D01*
X56427619Y66865477D01*
X55999047Y66246429D02*
X56046666Y66341667D01*
X56094285Y66389286D01*
X56189523Y66436905D01*
X56237142Y66436905D01*
X56332380Y66389286D01*
X56380000Y66341667D01*
X56427619Y66246429D01*
X56427619Y66055953D01*
X56380000Y65960715D01*
X56332380Y65913096D01*
X56237142Y65865477D01*
X56189523Y65865477D01*
X56094285Y65913096D01*
X56046666Y65960715D01*
X55999047Y66055953D01*
X55999047Y66246429D01*
X55951428Y66341667D01*
X55903809Y66389286D01*
X55808571Y66436905D01*
X55618095Y66436905D01*
X55522857Y66389286D01*
X55475238Y66341667D01*
X55427619Y66246429D01*
X55427619Y66055953D01*
X55475238Y65960715D01*
X55522857Y65913096D01*
X55618095Y65865477D01*
X55808571Y65865477D01*
X55903809Y65913096D01*
X55951428Y65960715D01*
X55999047Y66055953D01*
X82859619Y17946668D02*
X83335809Y18280001D01*
X82859619Y18518097D02*
X83859619Y18518097D01*
X83859619Y18137144D01*
X83812000Y18041906D01*
X83764380Y17994287D01*
X83669142Y17946668D01*
X83526285Y17946668D01*
X83431047Y17994287D01*
X83383428Y18041906D01*
X83335809Y18137144D01*
X83335809Y18518097D01*
X83526285Y17089525D02*
X82859619Y17089525D01*
X83907238Y17327621D02*
X83192952Y17565716D01*
X83192952Y16946668D01*
X77779620Y17946668D02*
X78255810Y18280001D01*
X77779620Y18518097D02*
X78779620Y18518097D01*
X78779620Y18137144D01*
X78732001Y18041906D01*
X78684381Y17994287D01*
X78589143Y17946668D01*
X78446286Y17946668D01*
X78351048Y17994287D01*
X78303429Y18041906D01*
X78255810Y18137144D01*
X78255810Y18518097D01*
X78779620Y17041906D02*
X78779620Y17518097D01*
X78303429Y17565716D01*
X78351048Y17518097D01*
X78398667Y17422859D01*
X78398667Y17184763D01*
X78351048Y17089525D01*
X78303429Y17041906D01*
X78208191Y16994287D01*
X77970096Y16994287D01*
X77874858Y17041906D01*
X77827239Y17089525D01*
X77779620Y17184763D01*
X77779620Y17422859D01*
X77827239Y17518097D01*
X77874858Y17565716D01*
X87502904Y8024762D02*
X87360047Y8072381D01*
X87121952Y8072381D01*
X87026714Y8024762D01*
X86979095Y7977143D01*
X86931476Y7881905D01*
X86931476Y7786667D01*
X86979095Y7691429D01*
X87026714Y7643810D01*
X87121952Y7596191D01*
X87312428Y7548572D01*
X87407666Y7500953D01*
X87455285Y7453334D01*
X87502904Y7358096D01*
X87502904Y7262858D01*
X87455285Y7167620D01*
X87407666Y7120000D01*
X87312428Y7072381D01*
X87074333Y7072381D01*
X86931476Y7120000D01*
X85979095Y8072381D02*
X86550523Y8072381D01*
X86264809Y8072381D02*
X86264809Y7072381D01*
X86360047Y7215239D01*
X86455285Y7310477D01*
X86550523Y7358096D01*
X89182380Y43013334D02*
X88706190Y42680000D01*
X89182380Y42441905D02*
X88182380Y42441905D01*
X88182380Y42822858D01*
X88230000Y42918096D01*
X88277619Y42965715D01*
X88372857Y43013334D01*
X88515714Y43013334D01*
X88610952Y42965715D01*
X88658571Y42918096D01*
X88706190Y42822858D01*
X88706190Y42441905D01*
X88182380Y43870477D02*
X88182380Y43680000D01*
X88230000Y43584762D01*
X88277619Y43537143D01*
X88420476Y43441905D01*
X88610952Y43394286D01*
X88991904Y43394286D01*
X89087142Y43441905D01*
X89134761Y43489524D01*
X89182380Y43584762D01*
X89182380Y43775239D01*
X89134761Y43870477D01*
X89087142Y43918096D01*
X88991904Y43965715D01*
X88753809Y43965715D01*
X88658571Y43918096D01*
X88610952Y43870477D01*
X88563333Y43775239D01*
X88563333Y43584762D01*
X88610952Y43489524D01*
X88658571Y43441905D01*
X88753809Y43394286D01*
X93853095Y31980239D02*
X93995952Y31932620D01*
X94234047Y31932620D01*
X94329285Y31980239D01*
X94376904Y32027858D01*
X94424523Y32123096D01*
X94424523Y32218334D01*
X94376904Y32313572D01*
X94329285Y32361191D01*
X94234047Y32408810D01*
X94043571Y32456429D01*
X93948333Y32504048D01*
X93900714Y32551667D01*
X93853095Y32646905D01*
X93853095Y32742143D01*
X93900714Y32837381D01*
X93948333Y32885000D01*
X94043571Y32932620D01*
X94281666Y32932620D01*
X94424523Y32885000D01*
X94805476Y32837381D02*
X94853095Y32885000D01*
X94948333Y32932620D01*
X95186428Y32932620D01*
X95281666Y32885000D01*
X95329285Y32837381D01*
X95376904Y32742143D01*
X95376904Y32646905D01*
X95329285Y32504048D01*
X94757857Y31932620D01*
X95376904Y31932620D01*
X81597380Y92376667D02*
X82311666Y92376667D01*
X82454523Y92329048D01*
X82549761Y92233810D01*
X82597380Y92090953D01*
X82597380Y91995715D01*
X82597380Y93376667D02*
X82597380Y92805239D01*
X82597380Y93090953D02*
X81597380Y93090953D01*
X81740238Y92995715D01*
X81835476Y92900477D01*
X81883095Y92805239D01*
M02*
