M48
; DRILL file {KiCad (5.1.9)-1} date 04/21/25 17:56:47
; FORMAT={-:-/ absolute / metric / decimal}
; #@! TF.CreationDate,2025-04-21T17:56:47+09:00
; #@! TF.GenerationSoftware,Kicad,Pcbnew,(5.1.9)-1
FMAT,2
METRIC
T1C0.300
T2C0.800
T3C1.000
T4C3.200
%
G90
G05
T1
X34.316Y82.683
X37.155Y51.671
X38.401Y53.65
X38.401Y49.598
X39.453Y56.814
X40.408Y89.163
X40.709Y93.25
X41.687Y93.409
X42.1Y93.986
X42.64Y76.272
X44.863Y67.746
X48.42Y71.843
X48.666Y76.671
X49.307Y73.01
X50.066Y76.085
X50.262Y72.9
X51.671Y79.611
X53.928Y76.961
X55.727Y67.551
X57.656Y78.51
X62.222Y61.205
X63.5Y82.403
X67.11Y82.403
X75.935Y61.68
X77.739Y55.992
T2
X16.51Y80.01
X16.51Y64.77
X16.51Y59.69
X16.51Y44.45
X16.51Y39.37
X16.51Y24.13
X16.51Y19.05
X16.51Y3.81
X18.415Y87.63
X18.415Y85.13
X19.05Y80.01
X19.05Y64.77
X19.05Y59.69
X19.05Y44.45
X19.05Y39.37
X19.05Y24.13
X19.05Y19.05
X19.05Y3.81
X21.59Y80.01
X21.59Y64.77
X21.59Y59.69
X21.59Y44.45
X21.59Y39.37
X21.59Y24.13
X21.59Y19.05
X21.59Y3.81
X24.13Y80.01
X24.13Y64.77
X24.13Y59.69
X24.13Y44.45
X24.13Y39.37
X24.13Y24.13
X24.13Y19.05
X24.13Y3.81
X26.67Y80.01
X26.67Y64.77
X26.67Y59.69
X26.67Y44.45
X26.67Y39.37
X26.67Y24.13
X26.67Y19.05
X26.67Y3.81
X29.21Y80.01
X29.21Y64.77
X29.21Y59.69
X29.21Y44.45
X29.21Y39.37
X29.21Y24.13
X29.21Y19.05
X29.21Y3.81
X31.75Y80.01
X31.75Y64.77
X31.75Y59.69
X31.75Y44.45
X31.75Y39.37
X31.75Y24.13
X31.75Y19.05
X31.75Y3.81
X34.29Y80.01
X34.29Y64.77
X34.29Y59.69
X34.29Y44.45
X34.29Y39.37
X34.29Y24.13
X34.29Y19.05
X34.29Y3.81
X36.83Y80.01
X36.83Y64.77
X36.83Y59.69
X36.83Y44.45
X36.83Y39.37
X36.83Y24.13
X36.83Y19.05
X36.83Y3.81
X39.37Y80.01
X39.37Y64.77
X39.37Y59.69
X39.37Y44.45
X39.37Y39.37
X39.37Y24.13
X39.37Y19.05
X39.37Y3.81
X41.91Y80.01
X41.91Y64.77
X41.91Y59.69
X41.91Y44.45
X41.91Y39.37
X41.91Y24.13
X41.91Y19.05
X41.91Y3.81
X44.45Y80.01
X44.45Y64.77
X44.45Y59.69
X44.45Y44.45
X44.45Y39.37
X44.45Y24.13
X44.45Y19.05
X44.45Y3.81
X46.99Y80.01
X46.99Y64.77
X46.99Y59.69
X46.99Y44.45
X46.99Y39.37
X46.99Y24.13
X46.99Y19.05
X46.99Y3.81
X49.53Y80.01
X49.53Y64.77
X49.53Y59.69
X49.53Y44.45
X49.53Y39.37
X49.53Y24.13
X49.53Y19.05
X49.53Y3.81
X52.705Y73.66
X52.705Y71.16
X52.705Y53.34
X52.705Y50.84
X52.705Y33.02
X52.705Y30.52
X52.705Y12.7
X52.705Y10.2
X58.42Y80.01
X58.42Y64.77
X58.42Y59.69
X58.42Y52.07
X58.42Y48.26
X58.42Y40.64
X58.42Y36.195
X58.42Y28.575
X60.96Y80.01
X60.96Y64.77
X60.96Y59.69
X60.96Y52.07
X60.96Y48.26
X60.96Y40.64
X60.96Y36.195
X60.96Y28.575
X63.5Y80.01
X63.5Y64.77
X63.5Y59.69
X63.5Y52.07
X63.5Y48.26
X63.5Y40.64
X63.5Y36.195
X63.5Y28.575
X65.405Y24.13
X65.405Y16.51
X66.04Y80.01
X66.04Y64.77
X66.04Y59.69
X66.04Y52.07
X66.04Y48.26
X66.04Y40.64
X66.04Y36.195
X66.04Y28.575
X66.04Y11.43
X66.04Y3.81
X68.58Y80.01
X68.58Y64.77
X68.58Y59.69
X68.58Y52.07
X68.58Y48.26
X68.58Y40.64
X68.58Y36.195
X68.58Y28.575
X68.58Y11.43
X68.58Y3.81
X70.485Y24.13
X70.485Y16.51
X71.12Y80.01
X71.12Y64.77
X71.12Y59.69
X71.12Y52.07
X71.12Y48.26
X71.12Y40.64
X71.12Y36.195
X71.12Y28.575
X71.12Y11.43
X71.12Y3.81
X73.66Y80.01
X73.66Y64.77
X73.66Y59.69
X73.66Y52.07
X73.66Y48.26
X73.66Y40.64
X73.66Y36.195
X73.66Y28.575
X73.66Y11.43
X73.66Y3.81
X75.565Y24.13
X75.565Y16.51
X76.2Y80.01
X76.2Y64.77
X76.2Y59.69
X76.2Y52.07
X76.2Y36.195
X76.2Y28.575
X76.835Y45.68
X76.835Y43.18
X78.74Y80.01
X78.74Y64.77
X78.74Y59.69
X78.74Y52.07
X79.375Y33.655
X79.375Y31.155
X80.552Y24.179
X80.552Y16.559
X81.28Y80.01
X81.28Y64.77
X81.28Y59.69
X81.28Y52.07
X83.82Y80.01
X83.82Y64.77
X83.82Y59.69
X83.82Y52.07
X85.725Y24.179
X85.725Y16.559
X86.36Y80.01
X86.36Y64.77
X86.36Y59.69
X86.36Y52.07
X86.36Y46.99
X86.36Y39.37
X88.9Y80.01
X88.9Y64.77
X89.535Y57.15
X89.535Y54.65
X91.44Y80.01
X91.44Y64.77
X94.615Y73.66
X94.615Y71.16
T3
X18.415Y96.52
X18.415Y91.44
X20.955Y96.52
X20.955Y91.44
X23.495Y96.52
X23.495Y91.44
X26.035Y96.52
X26.035Y91.44
X28.575Y96.52
X28.575Y91.44
X31.115Y96.52
X31.115Y91.44
X33.655Y96.52
X33.655Y91.44
X36.195Y96.52
X36.195Y91.44
X38.735Y96.52
X38.735Y91.44
X41.275Y96.52
X41.275Y91.44
X43.815Y96.52
X43.815Y91.44
X46.355Y96.52
X46.355Y91.44
X48.895Y96.52
X48.895Y91.44
X51.435Y96.52
X51.435Y91.44
X53.975Y96.52
X53.975Y91.44
X56.515Y96.52
X56.515Y91.44
X59.055Y96.52
X59.055Y91.44
X61.595Y96.52
X61.595Y91.44
X64.135Y96.52
X64.135Y91.44
X66.675Y96.52
X66.675Y91.44
X69.215Y96.52
X69.215Y91.44
X71.755Y96.52
X71.755Y91.44
X74.295Y96.52
X74.295Y91.44
X76.835Y96.52
X76.835Y91.44
X79.375Y96.52
X79.375Y91.44
X84.074Y10.16
X84.074Y7.62
X84.074Y5.08
X97.79Y34.925
X97.79Y32.385
X97.79Y29.845
T4
X5.0Y95.0
X5.0Y5.0
X95.0Y95.0
X95.0Y5.0
T0
M30
